<?xml version="1.0" encoding="utf-8"?>
<!-- Generator: Adobe Illustrator 19.2.0, SVG Export Plug-In . SVG Version: 6.00 Build 0)  -->
<svg version="1.1" id="Layer_1" xmlns="http://www.w3.org/2000/svg" xmlns:xlink="http://www.w3.org/1999/xlink" x="0px" y="0px"
	 viewBox="0 0 533 540" style="enable-background:new 0 0 533 540;" xml:space="preserve">
<style type="text/css">
	.st0{fill:#E0A075;}
	.st1{fill:#C67A54;stroke:#C67A54;stroke-width:0.75;stroke-miterlimit:10;}
	.st2{fill:#53BB80;}
	.st3{fill:url(#SVGID_1_);}
	.st4{fill:url(#SVGID_2_);}
	.st5{opacity:0.26;fill:url(#SVGID_3_);}
	.st6{opacity:0.26;fill:url(#SVGID_4_);}
	.st7{opacity:0.26;fill:url(#SVGID_5_);}
	.st8{opacity:0.26;fill:url(#SVGID_6_);}
	.st9{fill:url(#SVGID_7_);}
	.st10{fill:#3B3D3A;}
	.st11{clip-path:url(#SVGID_9_);fill:#FFFFFF;}
	.st12{clip-path:url(#SVGID_9_);fill:url(#SVGID_10_);}
	.st13{clip-path:url(#SVGID_9_);}
	.st14{opacity:0.26;fill:url(#SVGID_11_);}
	.st15{opacity:0.26;fill:url(#SVGID_12_);}
	.st16{opacity:0.26;fill:url(#SVGID_13_);}
	.st17{opacity:0.26;fill:url(#SVGID_14_);}
	.st18{clip-path:url(#SVGID_9_);fill:url(#SVGID_15_);}
	.st19{fill:#333533;}
	.st20{fill:#FAB01B;}
	.st21{fill:#F49720;}
	.st22{fill:#FBF5EA;}
	.st23{fill:#E9DFCF;}
	.st24{fill:#896852;}
	.st25{fill:#7D5C4A;}
	.st26{fill:#F9B317;}
	.st27{clip-path:url(#SVGID_9_);fill:#53BB80;}
	.st28{clip-path:url(#SVGID_9_);fill:none;stroke:#BBBBBC;stroke-linecap:round;stroke-linejoin:round;stroke-miterlimit:10;}
	.st29{clip-path:url(#SVGID_9_);fill:url(#SVGID_16_);}
	.st30{fill:#6C4D38;}
	.st31{fill:#4D3A2D;}
	.st32{fill:#7E573E;}
	.st33{fill:#875B3C;}
	.st34{fill:#FACB82;}
	.st35{fill:#FCCC83;}
	.st36{fill:#D9E7E5;}
	.st37{opacity:0.76;fill:url(#SVGID_17_);}
	.st38{fill:#D5E0DD;}
	.st39{fill:none;stroke:#A3B6B3;stroke-width:3;stroke-miterlimit:10;}
	.st40{fill:#FFFFFF;}
	.st41{opacity:0.76;fill:url(#SVGID_18_);}
	.st42{fill:#F5CD95;}
	.st43{fill:#ECE9E4;}
	.st44{fill:#FBF9F0;}
	.st45{fill:#E1B580;}
	.st46{fill:none;stroke:#ECE9E4;stroke-miterlimit:10;}
	.st47{fill:#724422;}
	.st48{fill:#875022;}
	.st49{opacity:0.26;fill:url(#SVGID_19_);}
	.st50{opacity:0.26;fill:url(#SVGID_20_);}
	.st51{fill:#ECC18D;}
	.st52{fill:#F8D9B9;}
	.st53{fill:#E8C4A5;}
	.st54{fill:#83593C;}
	.st55{fill:#986B4B;}
	.st56{opacity:0.76;fill:url(#SVGID_21_);}
</style>
<g>
	<g>
		<g>
			<path class="st0" d="M425.2,234.4c0,0-9.5-12.7-14.2-37.2l-2.1-2.9l-3.2,1.3c0,0,7.5,35.8,14.5,42
				C420.3,237.6,423.5,237.8,425.2,234.4z"/>
			<path class="st1" d="M421.9,228.2l-6.1,3.3c-0.2,0.1-0.4,0.1-0.5-0.1l-0.1-0.2c-0.1-0.1,0-0.3,0.2-0.4l6.1-3.3
				c0.2-0.1,0.4-0.1,0.5,0.1l0.1,0.2C422.2,227.9,422.1,228.1,421.9,228.2z"/>
			<path class="st1" d="M417.6,218.5l-5.8,2.2c-0.2,0.1-0.4,0-0.4-0.1l-0.1-0.2c-0.1-0.1,0.1-0.3,0.2-0.4l5.8-2.2
				c0.2-0.1,0.4,0,0.4,0.1l0.1,0.2C417.9,218.3,417.7,218.4,417.6,218.5z"/>
			<path class="st1" d="M414.4,209.2l-5.4,1.6c-0.2,0.1-0.3,0-0.4-0.2l0-0.2c0-0.1,0.1-0.3,0.2-0.4l5.4-1.6c0.2-0.1,0.3,0,0.4,0.2
				l0,0.2C414.6,208.9,414.5,209.1,414.4,209.2z"/>
			<path class="st1" d="M412.4,201.2l-5.5,1.2c-0.2,0-0.3,0-0.4-0.2l0-0.2c0-0.1,0.1-0.3,0.3-0.3l5.5-1.2c0.2,0,0.3,0,0.4,0.2l0,0.2
				C412.7,201,412.6,201.1,412.4,201.2z"/>
			<path class="st2" d="M408.5,194.8c0,0,9.5,6.1,13.6,6.3c0,0-2.3-7.4-8.8-8.6c0,0,11.9-1.6,12.7-1.3c0,0-2.2-5.9-13.1-1.7
				c0,0,5.7-9.8,7.3-11.8c0,0-8.5-0.6-11.9,10.3c0,0-4.2-12.5-5.3-13.4c0,0-3.7,7.1,1.8,14.2c0,0-7.1-6.8-14.4-2.5l10.2,4.3
				c0,0-7.7,2.9-7.4,9c0,0,7-5.1,10-5.1c0,0-5.6,9.2-5.1,12.4C398.3,206.8,405.4,203.6,408.5,194.8z"/>
		</g>
		<g>
			<path class="st0" d="M423.4,229.9c0,0,7.1-14.2,7.6-39.1l1.5-3.2l3.4,0.8c0,0-1.2,36.5-7,43.9C428.8,232.2,425.7,233,423.4,229.9
				z"/>
			<path class="st1" d="M425.6,223.2l6.5,2.2c0.2,0.1,0.4,0,0.5-0.1l0.1-0.2c0-0.1-0.1-0.3-0.3-0.4l-6.5-2.2c-0.2-0.1-0.4,0-0.5,0.1
				l-0.1,0.2C425.3,222.9,425.4,223.1,425.6,223.2z"/>
			<path class="st1" d="M428.2,212.9l6.1,1.2c0.2,0,0.4-0.1,0.4-0.2l0-0.2c0-0.1-0.1-0.3-0.3-0.3l-6.1-1.2c-0.2,0-0.4,0.1-0.4,0.2
				l0,0.2C427.9,212.7,428,212.9,428.2,212.9z"/>
			<path class="st1" d="M429.8,203.2l5.6,0.7c0.2,0,0.3-0.1,0.4-0.2l0-0.2c0-0.1-0.1-0.3-0.3-0.3l-5.6-0.7c-0.2,0-0.3,0.1-0.4,0.2
				l0,0.2C429.5,203,429.6,203.1,429.8,203.2z"/>
			<path class="st1" d="M430.3,194.9l5.6,0.2c0.2,0,0.3-0.1,0.3-0.3l0-0.2c0-0.1-0.1-0.3-0.3-0.3l-5.6-0.2c-0.2,0-0.3,0.1-0.3,0.3
				l0,0.2C430,194.8,430.1,194.9,430.3,194.9z"/>
			<path class="st2" d="M433.3,189.5c0,0-10.4,9.6-15.5,10.8c0,0,1.2-9.7,9-12.6c0,0-15.1,0.6-16.1,1.1c0,0,1.5-7.8,15.9-5
				c0,0-9.2-10.9-11.7-13.1c0,0,10.4-2.6,17,10.3c0,0,2.5-16.5,3.7-17.8c0,0,6.1,8,0.8,18.1c0,0,7.4-10,17.3-6.3l-11.7,7.5
				c0,0,10.2,1.9,11.2,9.5c0,0-9.8-4.8-13.5-4.2c0,0,9,10.2,9,14.3C448.7,202.1,439.1,199.8,433.3,189.5z"/>
		</g>
		<linearGradient id="SVGID_1_" gradientUnits="userSpaceOnUse" x1="421.6933" y1="217.4332" x2="424.4933" y2="242.6334">
			<stop  offset="0" style="stop-color:#CCA140"/>
			<stop  offset="0.1103" style="stop-color:#D0A84F"/>
			<stop  offset="0.3231" style="stop-color:#DBBC77"/>
			<stop  offset="0.6168" style="stop-color:#ECDCB7"/>
			<stop  offset="0.9158" style="stop-color:#FFFFFF"/>
		</linearGradient>
		<path class="st3" d="M424.1,228.1c6.6,0,12.1,4.9,12.9,11.3h-25.8C412.1,233.1,417.5,228.1,424.1,228.1z"/>
	</g>
	<g>
		<g>
			<path class="st0" d="M120.6,242c0,0,8.7-11.7,13-34.2l1.9-2.7l2.9,1.2c0,0-6.9,32.8-13.3,38.6C125.1,244.9,122.2,245.1,120.6,242
				z"/>
			<path class="st1" d="M123.6,236.3l5.6,3c0.2,0.1,0.4,0.1,0.4-0.1l0.1-0.1c0.1-0.1,0-0.3-0.2-0.4l-5.6-3c-0.2-0.1-0.4-0.1-0.4,0.1
				l-0.1,0.1C123.4,236,123.5,236.2,123.6,236.3z"/>
			<path class="st1" d="M127.7,227.4l5.3,2c0.2,0.1,0.3,0,0.4-0.1l0.1-0.1c0-0.1-0.1-0.3-0.2-0.3l-5.3-2c-0.2-0.1-0.3,0-0.4,0.1
				l-0.1,0.1C127.4,227.2,127.5,227.3,127.7,227.4z"/>
			<path class="st1" d="M130.6,218.8l4.9,1.5c0.2,0,0.3,0,0.4-0.1l0-0.1c0-0.1-0.1-0.3-0.2-0.3l-4.9-1.5c-0.2,0-0.3,0-0.4,0.1l0,0.1
				C130.3,218.6,130.4,218.8,130.6,218.8z"/>
			<path class="st1" d="M132.4,211.5l5,1.1c0.2,0,0.3,0,0.3-0.2l0-0.1c0-0.1-0.1-0.3-0.2-0.3l-5-1.1c-0.2,0-0.3,0-0.3,0.2l0,0.1
				C132.1,211.3,132.2,211.4,132.4,211.5z"/>
			<path class="st2" d="M135.9,205.6c0,0-8.7,5.6-12.4,5.8c0,0,2.1-6.8,8-7.9c0,0-10.9-1.5-11.7-1.2c0,0,2-5.4,12-1.6
				c0,0-5.2-9-6.7-10.8c0,0,7.8-0.6,10.9,9.5c0,0,3.8-11.5,4.9-12.3c0,0,3.4,6.5-1.7,13.1c0,0,6.6-6.2,13.2-2.3l-9.3,3.9
				c0,0,7,2.7,6.8,8.2c0,0-6.4-4.6-9.2-4.7c0,0,5.2,8.4,4.7,11.3C145.4,216.6,138.8,213.7,135.9,205.6z"/>
		</g>
		<g>
			<path class="st0" d="M122.3,237.9c0,0-6.6-13-7-35.9l-1.4-3l-3.1,0.7c0,0,1.1,33.5,6.5,40.3C117.3,240,120.2,240.7,122.3,237.9z"
				/>
			<path class="st1" d="M120.3,231.7l-6,2c-0.2,0.1-0.4,0-0.4-0.1l-0.1-0.2c0-0.1,0.1-0.3,0.3-0.4l6-2c0.2-0.1,0.4,0,0.4,0.1
				l0.1,0.2C120.6,231.5,120.5,231.6,120.3,231.7z"/>
			<path class="st1" d="M117.8,222.3l-5.6,1.1c-0.2,0-0.3,0-0.4-0.2l0-0.2c0-0.1,0.1-0.3,0.3-0.3l5.6-1.1c0.2,0,0.3,0,0.4,0.2l0,0.2
				C118.1,222.1,118,222.2,117.8,222.3z"/>
			<path class="st1" d="M116.4,213.3l-5.1,0.6c-0.2,0-0.3-0.1-0.3-0.2l0-0.2c0-0.1,0.1-0.3,0.3-0.3l5.1-0.6c0.2,0,0.3,0.1,0.3,0.2
				l0,0.2C116.7,213.2,116.6,213.3,116.4,213.3z"/>
			<path class="st1" d="M116,205.8l-5.1,0.2c-0.2,0-0.3-0.1-0.3-0.2l0-0.2c0-0.1,0.1-0.3,0.3-0.3l5.1-0.2c0.2,0,0.3,0.1,0.3,0.2
				l0,0.2C116.2,205.6,116.1,205.7,116,205.8z"/>
			<path class="st2" d="M113.2,200.7c0,0,9.6,8.9,14.2,9.9c0,0-1.1-9-8.3-11.6c0,0,13.9,0.5,14.8,1c0,0-1.4-7.2-14.6-4.6
				c0,0,8.5-10,10.7-12c0,0-9.5-2.4-15.6,9.4c0,0-2.3-15.1-3.4-16.3c0,0-5.6,7.3-0.8,16.6c0,0-6.8-9.2-15.9-5.8l10.7,6.9
				c0,0-9.3,1.8-10.2,8.8c0,0,9-4.4,12.4-3.9c0,0-8.3,9.4-8.3,13.1C99.1,212.3,107.9,210.2,113.2,200.7z"/>
		</g>
		<linearGradient id="SVGID_2_" gradientUnits="userSpaceOnUse" x1="121.3495" y1="228.0015" x2="121.6165" y2="247.2238">
			<stop  offset="0" style="stop-color:#CCA140"/>
			<stop  offset="0.1103" style="stop-color:#D0A84F"/>
			<stop  offset="0.3231" style="stop-color:#DBBC77"/>
			<stop  offset="0.6168" style="stop-color:#ECDCB7"/>
			<stop  offset="0.9158" style="stop-color:#FFFFFF"/>
		</linearGradient>
		<path class="st4" d="M121.6,236.2c-6.1,0-11.1,4.5-11.9,10.4h23.7C132.7,240.7,127.7,236.2,121.6,236.2z"/>
	</g>
	<g>
		<linearGradient id="SVGID_3_" gradientUnits="userSpaceOnUse" x1="400.4733" y1="106.0167" x2="400.4733" y2="222.2278">
			<stop  offset="0" style="stop-color:#C5966A"/>
			<stop  offset="0.4637" style="stop-color:#D4A478;stop-opacity:0.4937"/>
			<stop  offset="0.9158" style="stop-color:#E7B68A;stop-opacity:0"/>
		</linearGradient>
		<polygon class="st5" points="511.6,226.9 400.9,116.2 289.3,227.8 		"/>
		<linearGradient id="SVGID_4_" gradientUnits="userSpaceOnUse" x1="456.2752" y1="105.8896" x2="456.2752" y2="223.5472">
			<stop  offset="0" style="stop-color:#C5966A"/>
			<stop  offset="0.4637" style="stop-color:#D4A478;stop-opacity:0.4937"/>
			<stop  offset="0.9158" style="stop-color:#E7B68A;stop-opacity:0"/>
		</linearGradient>
		<polygon class="st6" points="400.9,116.2 420.4,229.2 511.6,226.9 		"/>
	</g>
	<g>
		<linearGradient id="SVGID_5_" gradientUnits="userSpaceOnUse" x1="126.6153" y1="106.0167" x2="126.6153" y2="222.2278">
			<stop  offset="0" style="stop-color:#C5966A"/>
			<stop  offset="0.4637" style="stop-color:#D4A478;stop-opacity:0.4937"/>
			<stop  offset="0.9158" style="stop-color:#E7B68A;stop-opacity:0"/>
		</linearGradient>
		<polygon class="st7" points="237.8,226.9 127.1,116.2 15.5,227.8 		"/>
		<linearGradient id="SVGID_6_" gradientUnits="userSpaceOnUse" x1="182.4172" y1="105.8896" x2="182.4172" y2="223.5472">
			<stop  offset="0" style="stop-color:#C5966A"/>
			<stop  offset="0.4637" style="stop-color:#D4A478;stop-opacity:0.4937"/>
			<stop  offset="0.9158" style="stop-color:#E7B68A;stop-opacity:0"/>
		</linearGradient>
		<polygon class="st8" points="127.1,116.2 146.6,229.2 237.8,226.9 		"/>
	</g>
	<linearGradient id="SVGID_7_" gradientUnits="userSpaceOnUse" x1="192.7303" y1="176.1328" x2="192.7303" y2="176.1328">
		<stop  offset="0.1604" style="stop-color:#FFFFFF;stop-opacity:0"/>
		<stop  offset="0.6302" style="stop-color:#FFFFFF;stop-opacity:0.6512"/>
		<stop  offset="1" style="stop-color:#FFFFFF;stop-opacity:0.95"/>
	</linearGradient>
	<path class="st9" d="M192.7,176.1"/>
	<g>
		<path class="st10" d="M354.6,460.8l-173.2-0.3c-7.4,0-13.5-6.1-13.4-13.5l0.8-392.6c0-7.4,6.1-13.5,13.5-13.4l177.5,0.3
			c5,0,9.2,4.1,9.2,9.2L368,447.3C368,454.7,362,460.8,354.6,460.8z"/>
		<g>
			<defs>
				<path id="SVGID_8_" d="M351.6,411.6l-167.3-0.3c-3.9,0-7.1-3.2-7.1-7.2L177.8,93c0-3.9,3.2-7.1,7.2-7.1l167.3,0.3
					c3.9,0,7.1,3.2,7.1,7.2l-0.6,311.1C358.8,408.4,355.6,411.6,351.6,411.6z"/>
			</defs>
			<clipPath id="SVGID_9_">
				<use xlink:href="#SVGID_8_"  style="overflow:visible;"/>
			</clipPath>
			<rect x="133.7" y="53.7" class="st11" width="338.7" height="466"/>
			<linearGradient id="SVGID_10_" gradientUnits="userSpaceOnUse" x1="270.0512" y1="133.0167" x2="270.0512" y2="293.544">
				<stop  offset="0" style="stop-color:#C5966A"/>
				<stop  offset="0.4637" style="stop-color:#D4A478;stop-opacity:0.4937"/>
				<stop  offset="0.9158" style="stop-color:#E7B68A;stop-opacity:0"/>
			</linearGradient>
			<rect x="172.7" y="202.6" class="st12" width="194.6" height="137"/>
			<g class="st13">
				<linearGradient id="SVGID_11_" gradientUnits="userSpaceOnUse" x1="338.6801" y1="130.4625" x2="338.6801" y2="204.087">
					<stop  offset="0" style="stop-color:#C5966A"/>
					<stop  offset="0.4637" style="stop-color:#D4A478;stop-opacity:0.4937"/>
					<stop  offset="0.9158" style="stop-color:#E7B68A;stop-opacity:0"/>
				</linearGradient>
				<polygon class="st14" points="409.1,207.1 339,136.9 268.3,207.6 				"/>
				<linearGradient id="SVGID_12_" gradientUnits="userSpaceOnUse" x1="374.0329" y1="130.382" x2="374.0329" y2="204.9229">
					<stop  offset="0" style="stop-color:#C5966A"/>
					<stop  offset="0.4637" style="stop-color:#D4A478;stop-opacity:0.4937"/>
					<stop  offset="0.9158" style="stop-color:#E7B68A;stop-opacity:0"/>
				</linearGradient>
				<polygon class="st15" points="339,136.9 351.3,208.5 409.1,207.1 				"/>
			</g>
			<g class="st13">
				<linearGradient id="SVGID_13_" gradientUnits="userSpaceOnUse" x1="198.9262" y1="152.6642" x2="198.9262" y2="207.7633">
					<stop  offset="0" style="stop-color:#C5966A"/>
					<stop  offset="0.4637" style="stop-color:#D4A478;stop-opacity:0.4937"/>
					<stop  offset="0.9158" style="stop-color:#E7B68A;stop-opacity:0"/>
				</linearGradient>
				<polygon class="st16" points="251.6,210 199.1,157.5 146.2,210.4 				"/>
				<linearGradient id="SVGID_14_" gradientUnits="userSpaceOnUse" x1="225.3836" y1="152.6039" x2="225.3836" y2="208.3889">
					<stop  offset="0" style="stop-color:#C5966A"/>
					<stop  offset="0.4637" style="stop-color:#D4A478;stop-opacity:0.4937"/>
					<stop  offset="0.9158" style="stop-color:#E7B68A;stop-opacity:0"/>
				</linearGradient>
				<polygon class="st17" points="199.1,157.5 208.4,211.1 251.6,210 				"/>
			</g>
			<linearGradient id="SVGID_15_" gradientUnits="userSpaceOnUse" x1="270.8271" y1="14.3501" x2="270.8271" y2="139.3176">
				<stop  offset="0" style="stop-color:#A7D9CE"/>
				<stop  offset="0.2607" style="stop-color:#B5D1BF;stop-opacity:0.7154"/>
				<stop  offset="0.7609" style="stop-color:#DABD98;stop-opacity:0.1691"/>
				<stop  offset="0.9158" style="stop-color:#E7B68A;stop-opacity:0"/>
			</linearGradient>
			<rect x="171.8" y="79.5" class="st18" width="198.1" height="128.1"/>
			<g class="st13">
				<path class="st10" d="M265.3,129.8c-0.6,0.2-1.2,0.4-1.9,0.5c-6.4,1.5-34,8-39.1,8.8c-5.1,0.9-4.6,8.7-4.5,10.3
					c0,0.2,0,0.4,0,0.6c0,4.3,0.3,48.1-0.1,57.3c-0.4,8.8,5,10.2,6.1,10.4c0.2,0,0.3,0.1,0.5,0.1c2.7,0.6,23.4,5.4,33.5,8.3
					c3.6,1,6.9,1.4,9.7,1.4v-98.4C267.5,129.2,266,129.6,265.3,129.8z"/>
				<path class="st19" d="M319.5,145.1c0.1-5.1-5.6-6.1-5.6-6.1s-32.3-7.2-38.8-9c-2.1-0.6-4-0.8-5.5-0.8v98.4c4.8,0,8.1-1,8.9-1.3
					c0.2-0.1,0.4-0.1,0.6-0.2l34.6-8.4c1.4-0.4,2.5-1,3.3-1.6c1.7-1.4,2.5-3.5,2.5-5.6C319.6,202.8,319.4,149.8,319.5,145.1z"/>
				<path class="st20" d="M263,143.9l-43.1,6.2v6.8l43.1-6.2c0,0,2.9-0.5,6.7-0.5v-6.8C265.9,143.5,263,143.9,263,143.9z"/>
				<path class="st21" d="M276.2,143.9c-2.2-0.4-4.5-0.5-6.5-0.5v6.8c2,0,4.3,0.1,6.5,0.5c6.4,1.1,43.4,5.6,43.4,5.6v-6.8
					C319.5,149.5,282.5,145,276.2,143.9z"/>
				<path class="st22" d="M263,195.4l-43.1-4.9v14l43.1,6.2c0,0,2.9,0.5,6.7,0.5v-15.3C265.9,195.8,263,195.4,263,195.4z"/>
				<path class="st23" d="M276.2,195.4c-2.2,0.4-4.5,0.5-6.5,0.5v15.3c2,0,4.3-0.1,6.5-0.5c6.4-1.1,43.4-5.6,43.4-5.6v-14.4
					C319.5,190.6,282.5,194.3,276.2,195.4z"/>
				<path class="st24" d="M259.8,210.3l-21.5-3.2l-18.4-2.6l-0.1,4c0,0-0.7,7.5,6,9.2l19,4.5l15.9,4.1l2.3,0.5l1.4,0.2l1.4,0.2
					l1.5,0.1l1.1,0.1l1.3,0v-16.5C266.8,211,263.6,210.8,259.8,210.3z"/>
				<path class="st25" d="M319.6,208.5l0-1.7l-0.1-1.7l-40.8,5.2c0,0-3.2,0.8-9.1,0.8v16.5l0.1,0c0,0,1.2,0.1,3.3-0.2
					c2.1-0.3,2.8-0.3,6.7-1.4l5.8-1.4l28.3-6.9l1.2-0.4l0.9-0.4l0.9-0.6l0.8-0.7l0.9-1.2l0.6-1.2l0.4-1.2l0.1-0.9v-1.2L319.6,208.5z
					"/>
				<path class="st20" d="M248,167.2h-4.6c-1.9,0-3.5-1.6-3.5-3.5l0,0c0-1.9,1.6-3.5,3.5-3.5h4.6c1.9,0,3.5,1.6,3.5,3.5l0,0
					C251.5,165.6,250,167.2,248,167.2z"/>
				<circle class="st20" cx="232.6" cy="164.1" r="3.5"/>
				<circle class="st20" cx="258" cy="162.8" r="3.5"/>
				<path class="st20" d="M223.4,161.5H220v7h3.3c1.5,0,2.7-1.2,2.7-2.7v-1.6C226.1,162.7,224.8,161.5,223.4,161.5z"/>
				<path class="st21" d="M272.9,159h-3.2v7h3.2c1.5,0,2.7-1.2,2.7-2.7v-1.6C275.6,160.2,274.4,159,272.9,159z"/>
				<path class="st20" d="M266.7,159c-1.5,0-2.7,1.2-2.7,2.7v1.6c0,1.5,1.2,2.7,2.7,2.7h3v-7H266.7z"/>
				<circle class="st21" cx="306.2" cy="164.4" r="3.5"/>
				<path class="st21" d="M315.9,161.7c-1.5,0-2.7,1.2-2.7,2.7v1.6c0,1.5,1.2,2.7,2.7,2.7h3.5v-7H315.9z"/>
				<path class="st26" d="M299.6,207.4v-43.6c0-1.9-1.6-3.5-3.5-3.5l-11.2-0.8c-1.9,0-3.5,1.6-3.5,3.5v46.7c0,0,0,0,0,0L299.6,207.4
					z"/>
			</g>
			<path class="st27" d="M310.4,336.1h-83.1c-3.3,0-6-2.7-6-6v-11c0-3.3,2.7-6,6-6h83.1c3.3,0,6,2.7,6,6v11
				C316.4,333.4,313.7,336.1,310.4,336.1z"/>
			<line class="st28" x1="221.3" y1="305.5" x2="315.6" y2="305.5"/>
			
				<linearGradient id="SVGID_16_" gradientUnits="userSpaceOnUse" x1="850.6754" y1="-1073.6489" x2="850.6754" y2="-1052.2719" gradientTransform="matrix(0.6827 -0.7307 0.7307 0.6827 578.4603 1519.7302)">
				<stop  offset="0" style="stop-color:#C5966A"/>
				<stop  offset="0.4637" style="stop-color:#D4A478;stop-opacity:0.9747"/>
				<stop  offset="0.9158" style="stop-color:#E7B68A;stop-opacity:0.95"/>
			</linearGradient>
			<path class="st29" d="M401.9,166.6c2.6,2.4-2.7,8.2-9.3,15.3c-6.6,7.1-12,12.7-14.6,10.3c-2.6-2.4-1.4-12,5.2-19.1
				C389.9,166,399.3,164.2,401.9,166.6z"/>
			<g class="st13">
				<path class="st30" d="M319.3,408.8c0,0-0.1,4.9,2.7,7.7c2.8,2.8,8.7,8.8,8.3,15.9c-0.3,7,0.9,23.4,0.7,24.7
					c-0.2,1.3-2,2.5,0.7,2.3c2.7-0.2,3.5,0,3-1.4c-0.5-1.4-0.2-1-0.5-5.6c-0.3-4.6-0.2-13.6-0.1-16.2c0.1-2.6,1.2-13.9,0.6-15.6
					l-5.3-11.7l-4.5-2.1l-5.7,0.8L319.3,408.8z"/>
				<path class="st31" d="M297.6,378c0,0-7.3,34.2,28.5,30.5l2.4-0.6l-0.8-4.7l-2.1-2.1l-8.4-0.6l-10.7-3.9l-6.9-18.1l0.8-3.4
					l-2.6-0.4L297.6,378z"/>
				<path class="st32" d="M377.2,397.1c0,0,1.1,12.8-1,13s-3-4.2-3.2-9.5S377.2,397.1,377.2,397.1z"/>
				<circle class="st31" cx="362.2" cy="375.4" r="8.7"/>
				<path class="st31" d="M320.2,394.5c0,0-6.2-2.7-6.2-17.2c0-14.6-10-12.9-14.2-12.8v4.3l6.1,0.5l2.2,4.5l0.6,14.4l1.4,4.9
					l7.2,3.1L320.2,394.5z"/>
				<circle class="st31" cx="339.9" cy="375.4" r="8.7"/>
				<path class="st33" d="M295.3,367.3c0,0-11.2-1.9-9.2,6.3c1.9,8.3,9.2,4,9.2,4s2.4,1,3.6-0.2c0,0-5,29.9,27.2,26.7v6
					c0,0,0.3,4.7,3.9,7.8c3.6,3.1,8.6,7.4,8.7,13c0.2,5.5,0,22.8,0,22.8l0.1,3.7c0,0-3.3,2.1-1.4,2.4c1.8,0.4,5.6,1.7,5.1-1.1
					c-0.5-2.8-0.8-28,0-31c0.8-2.9,0-9.2-3.3-14.9c0,0,8.6,2.3,14.7,1.2c0,0,3,7.6,3.9,13.1c0.8,5.5-4.9,17-3.9,24.5
					c0,0,0.6,3.3,1,5c0.4,1.7-3.3,4.1-0.2,4.4c3,0.2,5.1,0.8,4-2.7c-1.1-3.5-2.6-11.5,0.3-17.5s6-17.5,6-17.5s13.6-22.5,12.7-30
					c-0.8-7.5-5.9-10.2-5.9-10.2s1.6-12.7-8.9-12.3s-9.6,7.6-9.6,7.6h-3.5c0,0-2.2-8.4-9.3-8.1s-9.8,6.4-9.5,10.1
					c0.4,3.6,0.5,15.3-11.4,13.2c-11.9-2.1-9.6-14.1-9.7-18.3c-0.1-4.2-0.2-2.9-1.1-4.9c-0.4-1-0.5-6.6-1.4-6.6
					c-0.9-0.1-2,1.5-1.9,3.2C305.4,368.8,295.3,367.3,295.3,367.3z"/>
				<path class="st33" d="M371.3,419.5c0,0-0.5-7.2,2.1-12.8c2.6-5.6,0.6-10.7-4.8-10.8c-5.4-0.1-12.6,8-8.9,17.6
					c3.7,9.6,6,14.6,2.5,24.7c-3.5,10.1-1.9,18.7-1.9,18.7s0.1,1.1-0.7,1.9c-0.8,0.8,5.5,1.5,4.5,0s-1.1-0.3-1.1-4.3
					c0-4,2.6-17.8,5.3-22.6C371.2,427,371.3,419.5,371.3,419.5z"/>
				<circle class="st10" cx="298.5" cy="371.1" r="1.4"/>
				<path class="st31" d="M286.3,369.7c0,0,3,3.1-0.4,3.3C285.9,373,285.9,371.3,286.3,369.7z"/>
				<path class="st30" d="M363.8,426.9c0,0,0.9-11.6-2.1-12.7s-7.9-0.2-7.9-0.2l2.7,7.9c0,0,0.6,1.4,0.7,5.1s1.3,1.1-0.3,5.9
					s-4.4,15.1-2.7,21.2c0,0,1.2,3.4-0.3,4.6c-1.4,1.2-1.3,2.4,1.7,2.4c3-0.1,3.6,0.3,3-1.8c-0.6-2-1.2-7.3-1.1-13.6
					C357.8,439.5,362.7,438,363.8,426.9z"/>
			</g>
		</g>
		
			<ellipse transform="matrix(0.9973 -7.301280e-002 7.301280e-002 0.9973 -31.0394 20.3282)" class="st19" cx="262.5" cy="434.7" rx="13.8" ry="13.8"/>
		
			<ellipse transform="matrix(0.9973 -7.301280e-002 7.301280e-002 0.9973 -3.9386 21.08)" class="st19" cx="286.4" cy="64.4" rx="4.7" ry="4.7"/>
		<path class="st19" d="M272.3,68.2l-31-0.1c-1.4,0-2.6-1.2-2.6-2.6l0-2.7c0-1.4,1.2-2.6,2.6-2.6l31,0.1c1.4,0,2.6,1.2,2.6,2.6
			l0,2.7C274.9,67,273.7,68.2,272.3,68.2z"/>
		<g>
			
				<ellipse transform="matrix(0.9984 -5.707613e-002 5.707613e-002 0.9984 -25.3779 10.5927)" class="st34" cx="172.7" cy="449.6" rx="12.5" ry="12.5"/>
			<path class="st34" d="M107.4,420.4c0.1-0.2,0.3-0.3,0.3-0.5c0.9-2.4,7-18.7,6.5-46.5c-0.5-30.1,5.5-54.2,18.9-84
				c13.4-29.8,25.4-63.8,30.8-79s2-26.8,11-26.1c9.1,0.7,31,31.1,13,69.8s-0.5,51.5,2.9,90.4c3.4,38.8,8.5,51.2-26.4,104.4
				c-0.1,0.2-0.2,0.5-0.3,0.7c-0.2,1.2-0.2,4.6,5.1,5.5c5.1,0.9,43,4.9,59.6,6.6c2,0.2,2.2,2.9,0.4,3.6c-3.8,1.3-9.7,3.2-18.6,6
				c-19.3,6-26.1,20.9-28.1,27.1c-0.4,1.3-2,1.7-3,0.8l-77.4-70.3c-0.7-0.7-0.8-1.8-0.1-2.6L107.4,420.4z"/>
			<path class="st35" d="M368.6,195.5c0-1.1,0.9-1.9,2-1.8c7.1,0.7,31.1,4,31.8,16c0.8,13.6-11.9,20.2-32.4,22.1
				c-1.1,0.1-2-0.8-2-1.9L368.6,195.5z"/>
			<path class="st35" d="M369.5,249.8c0.3,0,0.6,0,0.9,0.2c2.4,1.1,14.4,7.1,18.4,16.2c3.5,8,19,39.7-4.3,37.9
				c-23.2-1.8-26-12.6-21.1-26.1c0-0.1,0-0.1,0.1-0.2l4.7-10.5c0.1-0.2,0.2-0.5,0.2-0.7l0.3-16.7L369.5,249.8z"/>
			<path class="st35" d="M367.8,311.6l0.8-10c0.1-1.1,1.2-1.9,2.3-1.6c6.9,1.8,28.1,9.5,22.8,34c-6.3,29.2-20.3,25.5-27.6,18.3
				C359,345.4,360.9,322.3,367.8,311.6c0.3-0.4,0.5-0.8,0.8-1.1"/>
			<path class="st35" d="M379.9,357.1c0.6,0,1.1,0.4,1.4,0.9c1.2,1.9,4,7,4,11.5c0,0,2.2,30.4-18.1,27.5
				c-19.2-2.8-5.9-35.9,0.4-41.7c0.5-0.5,1.3-0.6,1.9-0.3C371.1,355.5,374.5,356.7,379.9,357.1z"/>
			
				<ellipse transform="matrix(0.9984 -5.707613e-002 5.707613e-002 0.9984 -25.4879 10.7479)" class="st36" cx="175.4" cy="451.6" rx="0.2" ry="2.2"/>
			<radialGradient id="SVGID_17_" cx="224.7062" cy="544.4048" r="120.4035" gradientUnits="userSpaceOnUse">
				<stop  offset="0" style="stop-color:#FFFFFF;stop-opacity:0.95"/>
				<stop  offset="1" style="stop-color:#FFFFFF;stop-opacity:0"/>
			</radialGradient>
			<path class="st37" d="M107.4,420.4c0.1-0.2,0.3-0.3,0.3-0.5c0.9-2.4,7-18.7,6.5-46.5c-0.5-30.1,5.5-54.2,18.9-84
				c13.4-29.8,25.4-63.8,30.8-79s2-26.8,11-26.1c9.1,0.7,31,31.1,13,69.8s-0.5,51.5,2.9,90.4c3.4,38.8,8.5,51.2-26.4,104.4
				c-0.1,0.2-0.2,0.5-0.3,0.7c-0.2,1.2-0.2,4.6,5.1,5.5c5.1,0.9,43,4.9,59.6,6.6c2,0.2,2.2,2.9,0.4,3.6c-3.8,1.3-9.7,3.2-18.6,6
				c-19.3,6-26.1,20.9-28.1,27.1c-0.4,1.3-2,1.7-3,0.8l-77.4-70.3c-0.7-0.7-0.8-1.8-0.1-2.6L107.4,420.4z"/>
		</g>
		<path class="st38" d="M200.1,502.3l-31,34.1c-1.9,2.1-5.1,2.2-7.2,0.3L67.7,451c-2.1-1.9-2.2-5.1-0.3-7.2l31-34.1
			c1.9-2.1,5.1-2.2,7.2-0.3l94.2,85.7C201.9,496.9,202,500.2,200.1,502.3z"/>
		<line class="st39" x1="153.4" y1="509.5" x2="143.2" y2="519.7"/>
		<circle class="st40" cx="161.2" cy="502.4" r="10.6"/>
		<radialGradient id="SVGID_18_" cx="193.7441" cy="512.0133" r="66.358" gradientUnits="userSpaceOnUse">
			<stop  offset="0" style="stop-color:#FFFFFF;stop-opacity:0.95"/>
			<stop  offset="1" style="stop-color:#FFFFFF;stop-opacity:0"/>
		</radialGradient>
		<path class="st41" d="M200.1,502.3l-31,34.1c-1.9,2.1-5.1,2.2-7.2,0.3L67.7,451c-2.1-1.9-2.2-5.1-0.3-7.2l31-34.1
			c1.9-2.1,5.1-2.2,7.2-0.3l94.2,85.7C201.9,496.9,202,500.2,200.1,502.3z"/>
	</g>
	<g>
		<path class="st42" d="M231.4,281.2l-3.9,2.7c0,0,3.7-0.1,3.5,4.1s2.6,1.9,2.6,1.9s3.6-2.8,4.7-4.3s-0.9-2-3.3-1s-3.1-2.6-3.1-2.6
			L231.4,281.2z"/>
		<path class="st42" d="M217.9,286.6c0,0-1.8,4,2,4c3.8-0.1,3.6,2.4,1.1,2.5c-2.6,0.1-9.5,1.7-8.1-0.9s1.2-5.2,1.2-6.3L217.9,286.6z
			"/>
		<path class="st43" d="M230.7,260.8l1.6,20.5c0,0-4,8.1-12.9,5.6l-5.7-1.1l0.3-24.9l2-3.4l3-3.9l2.3,1l2.7,2.4l5.8,3L230.7,260.8"
			/>
		<path class="st44" d="M230.8,235.4l0.5,25c0,0-5.8,4-12.4-5.1v9.2c0,0-2.1-3.5-7-4l-0.8-33.3c0,0,0.1-5.1,3.5-5.1l2.6,0l-0.1-0.7
			h1.8L230.8,235.4"/>
		<path class="st42" d="M219.2,221.6c0,0-1.4-15.3,5.8-13.3c7.3,2,4.6,13.7,0,13.5l-0.1,1.9c0,0,8.7,1.3,6.8,8.3
			c-1.9,7.1-2.7,12.6-2.6,18.1c0,0,1.8,1.4,1.4,2c-0.4,0.6-0.9,4.2-2.7,4.1c-1.7-0.1-1.6-1.1-1.6-2c0-0.9-0.3-2.2-0.7-3.5
			c-0.4-1.3-0.8-12.7,0.3-18.2C225.8,232.6,220.1,227.1,219.2,221.6z"/>
		<g>
			<path class="st45" d="M225.1,215.8c0,0,0.1,0.3,0.2,0.6c0.1,0.4,0.1,0.8,0.2,1.2c0,0.2,0.1,0.4,0.1,0.6c0,0.1,0,0.2,0.1,0.3
				c0,0.1,0.1,0.2,0.1,0.2c0.1,0.1,0.1,0.3,0.2,0.4c0.1,0.1,0.1,0.2,0.1,0.2c0,0-0.3,0.1-0.7-0.1c-0.2-0.1-0.4-0.3-0.5-0.5
				c-0.1-0.1-0.1-0.2-0.2-0.4c0-0.1-0.1-0.3-0.1-0.4c-0.1-0.6,0-1.1,0.2-1.5C224.9,216,225.1,215.8,225.1,215.8z"/>
		</g>
	</g>
	<g>
		<path class="st46" d="M317.6,198.8"/>
		<path class="st47" d="M323.2,257.5l1.1,1.7c0,0,1.4,1.3-0.3,3.6c-1.8,2.3-2,3-3.9,2.7c-1.8-0.3-3.2-1.3-1.2-1.4c2-0.1,1-5,1-5
			S319.6,253.9,323.2,257.5z"/>
		<path class="st47" d="M313.6,253.7c0,0,1,2.2-0.9,2c-1.9-0.1-4.9-0.1-3.4,1c1.5,1.2,3.2,2.2,3.2,2.2s3,2.3,3-0.8
			c0.1-3,0.1-3,0.1-3S315.3,252,313.6,253.7z"/>
		<path class="st43" d="M313,253.3c0,0,1-14.6,0.3-16.8l13-10c0,0,0.6,0.1,0.6,0.3c0,0.2,0,10.4-1.1,12.1c0,0,3.4,11.6,0.6,14.9
			c0,0,0.3,4.5-2.5,3.7s-4.7,3.3-5.6,1.7C317.4,257.7,317.5,256.7,313,253.3z"/>
		<path class="st47" d="M328.2,229.8c0,0-0.2,3.2,1.7,2.4s1.2-3.9,0.8-4.4c-0.5-0.5-0.4-0.4-1-0.2
			C329.1,227.7,328.2,229.8,328.2,229.8z"/>
		<path class="st47" d="M321.9,205.2l-0.2-3c0,0,2.7-9.3-3.9-9s-4.3,11.8-0.5,11.6l0.3,1.5c0,0-6.5,1.4-6.2,4.2c0,0,1.8,10.5-3.3,17
			c0,0-2.9-0.6-3.3,0.5c-0.4,1.2-1,3.4,0.6,3.4s2-0.7,3.1-0.8c1.1-0.1,7.1-3.7,6.7-16C315.2,214.5,318.9,211.7,321.9,205.2z"/>
		<path class="st44" d="M321.9,204.8c0,0,7.1-0.7,8.5,10.7c1.5,11.4,1.3,10.6,1.3,10.6l-3.8,1.4l-1.5,0.5c0,0,0.3,2.7-0.6,3.1
			c-0.8,0.4-4.2,1.5-4.2,1.5s-2.8,6.1-8.3,4c-0.6-0.2-1.3-0.6-1.9-1l0.2-8.1l2.5-16.1l6.1-5.5L321.9,204.8z"/>
		<path class="st48" d="M327.9,227.4c0,0,0,3,1,2.8s-0.1-1.2,0.3-1.6c0.4-0.4,2.9-0.7,1.9-2.2L327.9,227.4z"/>
	</g>
	<linearGradient id="SVGID_19_" gradientUnits="userSpaceOnUse" x1="413.0448" y1="29.0167" x2="413.0448" y2="136.3521">
		<stop  offset="0" style="stop-color:#C5966A"/>
		<stop  offset="0.4637" style="stop-color:#D4A478;stop-opacity:0.4937"/>
		<stop  offset="0.9158" style="stop-color:#E7B68A;stop-opacity:0"/>
	</linearGradient>
	<path class="st49" d="M451.2,112.8c0-0.1,0.1-0.1,0.1-0.2c0.1-0.1,0.1-0.3,0.2-0.4c0-0.1,0-0.1,0.1-0.2c0.1-0.2,0.1-0.3,0.2-0.5
		c0-0.1,0-0.1,0.1-0.2c0-0.2,0.1-0.3,0.1-0.5c0,0,0,0,0-0.1c0-0.2,0.1-0.4,0.1-0.6c0-0.1,0-0.1,0-0.2c0-0.2,0-0.4,0-0.6
		c0-3.7-3-6.7-6.7-6.7c-0.9,0-1.8,0.2-2.6,0.5c-1.2-4.2-5.1-7.3-9.7-7.3c-0.3,0-0.5,0-0.8,0c-0.1,0-0.2,0-0.3,0c0,0-0.1,0-0.1,0
		c0,0,0,0,0,0c-0.2,0-0.4,0-0.6,0.1c0-0.1,0-0.1,0-0.2c0-4.5-1.5-8.7-4-12.1c0,0,0,0,0,0c0,0,0,0,0,0c-0.2-0.3-0.4-0.6-0.7-0.9
		c-0.1-0.1-0.1-0.1-0.2-0.2c-0.2-0.2-0.4-0.4-0.5-0.6c-0.1-0.1-0.2-0.2-0.3-0.3c-0.2-0.2-0.3-0.3-0.5-0.5c-0.1-0.1-0.2-0.2-0.3-0.3
		c-0.2-0.2-0.4-0.3-0.5-0.5c-0.1-0.1-0.2-0.2-0.3-0.2c-0.2-0.2-0.4-0.4-0.7-0.5c-0.1,0-0.1-0.1-0.2-0.1c-0.3-0.2-0.6-0.4-0.9-0.6
		c-0.1,0-0.1-0.1-0.2-0.1c-0.2-0.2-0.5-0.3-0.7-0.4c-0.1-0.1-0.2-0.1-0.3-0.2c-0.2-0.1-0.4-0.2-0.6-0.3c-0.1-0.1-0.2-0.1-0.4-0.2
		c-0.2-0.1-0.4-0.2-0.6-0.3c-0.1-0.1-0.2-0.1-0.4-0.2c-0.2-0.1-0.5-0.2-0.7-0.3c-0.1,0-0.2-0.1-0.3-0.1c-0.3-0.1-0.7-0.2-1-0.4
		c-0.1,0-0.1,0-0.2,0c-0.3-0.1-0.6-0.2-0.9-0.2c-0.1,0-0.2-0.1-0.4-0.1c-0.2-0.1-0.5-0.1-0.7-0.2c-0.1,0-0.3-0.1-0.4-0.1
		c-0.2,0-0.5-0.1-0.7-0.1c-0.1,0-0.3,0-0.4-0.1c-0.3,0-0.5-0.1-0.8-0.1c-0.1,0-0.2,0-0.4,0c-0.4,0-0.8,0-1.1,0
		c-8.7,0-16,5.4-18.9,13.1c-1.3-0.4-2.7-0.6-4.1-0.6c-0.3,0-0.6,0-0.9,0c-0.1,0-0.2,0-0.2,0c-0.2,0-0.5,0-0.7,0.1
		c-0.1,0-0.1,0-0.2,0c-0.3,0-0.6,0.1-0.9,0.2c-0.1,0-0.1,0-0.2,0c-0.2,0.1-0.5,0.1-0.7,0.2c-0.1,0-0.1,0-0.2,0.1
		c-0.3,0.1-0.5,0.2-0.8,0.3c0,0,0,0,0,0c-0.3,0.1-0.5,0.2-0.8,0.3c-0.1,0-0.1,0-0.2,0.1c-0.2,0.1-0.5,0.2-0.7,0.3c0,0-0.1,0-0.1,0.1
		c-0.3,0.1-0.5,0.3-0.8,0.4c0,0,0,0,0,0c-0.2,0.1-0.5,0.3-0.7,0.5c0,0-0.1,0-0.1,0.1c-0.5,0.3-0.9,0.7-1.4,1.1c0,0,0,0,0,0
		c-0.2,0.2-0.4,0.4-0.6,0.6c0,0,0,0,0,0c-0.4,0.4-0.8,0.9-1.2,1.4c0,0,0,0,0,0c-1.6,2.3-2.6,5.1-2.6,8.1c0,7.7,6.2,14,14,14h57.3
		C447.8,116.2,450,114.9,451.2,112.8C451.1,112.9,451.1,112.9,451.2,112.8C451.2,112.9,451.2,112.8,451.2,112.8z"/>
	<linearGradient id="SVGID_20_" gradientUnits="userSpaceOnUse" x1="134.7951" y1="55.9258" x2="134.7951" y2="120.1574">
		<stop  offset="0" style="stop-color:#C5966A"/>
		<stop  offset="0.4637" style="stop-color:#D4A478;stop-opacity:0.4937"/>
		<stop  offset="0.9158" style="stop-color:#E7B68A;stop-opacity:0"/>
	</linearGradient>
	<path class="st50" d="M157.6,106.1c0,0,0-0.1,0.1-0.1c0-0.1,0.1-0.2,0.1-0.2c0,0,0-0.1,0-0.1c0-0.1,0.1-0.2,0.1-0.3
		c0,0,0-0.1,0-0.1c0-0.1,0.1-0.2,0.1-0.3c0,0,0,0,0,0c0-0.1,0-0.2,0.1-0.3c0,0,0-0.1,0-0.1c0-0.1,0-0.2,0-0.4c0-2.2-1.8-4-4-4
		c-0.5,0-1.1,0.1-1.5,0.3c-0.7-2.5-3.1-4.4-5.8-4.4c-0.2,0-0.3,0-0.5,0c-0.1,0-0.1,0-0.2,0c0,0-0.1,0-0.1,0c0,0,0,0,0,0
		c-0.1,0-0.2,0-0.4,0c0,0,0-0.1,0-0.1c0-2.7-0.9-5.2-2.4-7.2c0,0,0,0,0,0c0,0,0,0,0,0c-0.1-0.2-0.3-0.3-0.4-0.5c0,0-0.1-0.1-0.1-0.1
		c-0.1-0.1-0.2-0.2-0.3-0.4c0-0.1-0.1-0.1-0.1-0.2c-0.1-0.1-0.2-0.2-0.3-0.3c-0.1-0.1-0.1-0.1-0.2-0.2c-0.1-0.1-0.2-0.2-0.3-0.3
		c-0.1,0-0.1-0.1-0.2-0.1c-0.1-0.1-0.3-0.2-0.4-0.3c0,0-0.1-0.1-0.1-0.1c-0.2-0.1-0.3-0.3-0.5-0.4c0,0-0.1-0.1-0.1-0.1
		c-0.1-0.1-0.3-0.2-0.4-0.3c-0.1,0-0.1-0.1-0.2-0.1c-0.1-0.1-0.2-0.1-0.4-0.2c-0.1,0-0.1-0.1-0.2-0.1c-0.1-0.1-0.3-0.1-0.4-0.2
		c-0.1,0-0.1-0.1-0.2-0.1c-0.1-0.1-0.3-0.1-0.4-0.2c-0.1,0-0.1,0-0.2-0.1c-0.2-0.1-0.4-0.1-0.6-0.2c0,0-0.1,0-0.1,0
		c-0.2-0.1-0.4-0.1-0.5-0.1c-0.1,0-0.1,0-0.2-0.1c-0.1,0-0.3-0.1-0.4-0.1c-0.1,0-0.2,0-0.2,0c-0.1,0-0.3,0-0.4-0.1
		c-0.1,0-0.2,0-0.3,0c-0.2,0-0.3,0-0.5,0c-0.1,0-0.1,0-0.2,0c-0.2,0-0.5,0-0.7,0c-5.2,0-9.6,3.3-11.3,7.8c-0.8-0.2-1.6-0.4-2.5-0.4
		c-0.2,0-0.4,0-0.5,0c0,0-0.1,0-0.1,0c-0.1,0-0.3,0-0.4,0c0,0-0.1,0-0.1,0c-0.2,0-0.3,0.1-0.5,0.1c0,0-0.1,0-0.1,0
		c-0.1,0-0.3,0.1-0.4,0.1c0,0-0.1,0-0.1,0c-0.2,0-0.3,0.1-0.5,0.2c0,0,0,0,0,0c-0.2,0.1-0.3,0.1-0.5,0.2c0,0-0.1,0-0.1,0
		c-0.1,0.1-0.3,0.1-0.4,0.2c0,0,0,0-0.1,0c-0.2,0.1-0.3,0.2-0.5,0.3c0,0,0,0,0,0c-0.1,0.1-0.3,0.2-0.4,0.3c0,0,0,0-0.1,0
		c-0.3,0.2-0.6,0.4-0.8,0.7c0,0,0,0,0,0c-0.1,0.1-0.2,0.2-0.4,0.4c0,0,0,0,0,0c-0.2,0.3-0.5,0.6-0.7,0.8c0,0,0,0,0,0
		c-1,1.4-1.5,3-1.5,4.8c0,4.6,3.7,8.4,8.4,8.4h34.3C155.6,108.1,156.9,107.3,157.6,106.1C157.6,106.1,157.6,106.1,157.6,106.1
		C157.6,106.1,157.6,106.1,157.6,106.1z"/>
	<g>
		<path class="st51" d="M444.4,368.8l4.4,3c0,0-4.2-0.1-4,4.6c0.2,4.7-2.9,2.2-2.9,2.2s-4.1-3.2-5.2-4.9c-1.2-1.7,1-2.3,3.7-1.2
			c2.7,1.2,3.5-2.9,3.5-2.9L444.4,368.8z"/>
		<path class="st51" d="M459.6,374.8c0,0,2,4.5-2.2,4.4c-4.2-0.1-4.1,2.7-1.2,2.8c2.9,0.1,10.7,1.9,9.2-1c-1.5-2.8-1.3-5.9-1.3-7.1
			L459.6,374.8z"/>
		<path class="st43" d="M445.2,345.8l-1.8,23c0,0,4.5,9.1,14.5,6.3l6.4-1.2l-0.3-28l-2.2-3.9l-3.4-4.4l-2.6,1.2l-3.1,2.8l-6.5,3.4
			L445.2,345.8"/>
		<path class="st44" d="M445,317.3l-0.6,28.1c0,0,6.5,4.5,13.9-5.7V350c0,0,2.4-3.9,7.9-4.5l0.9-37.5c0,0-0.1-5.8-3.9-5.7l-2.9,0
			l0.1-0.8h-2L445,317.3"/>
		<path class="st51" d="M458.2,301.7c0,0,1.6-17.1-6.6-14.9c-8.2,2.2-5.2,15.4,0,15.1l0.1,2.1c0,0-9.8,1.4-7.7,9.3
			s3.1,14.2,2.9,20.4c0,0-2,1.6-1.6,2.3s1,4.7,3,4.6s1.8-1.2,1.8-2.2c0-1,0.3-2.4,0.8-3.9c0.5-1.5,0.9-14.2-0.4-20.5
			C450.7,314.1,457.1,307.9,458.2,301.7z"/>
		<g>
			<path class="st45" d="M451.4,295.2c0,0,0.2,0.2,0.4,0.6c0.2,0.4,0.3,1,0.2,1.6c0,0.2-0.1,0.3-0.1,0.5c0,0.2-0.1,0.3-0.2,0.4
				c-0.2,0.3-0.4,0.5-0.6,0.6c-0.4,0.3-0.8,0.2-0.8,0.2c0,0,0-0.1,0.1-0.2c0.1-0.1,0.2-0.3,0.2-0.4c0-0.1,0.1-0.2,0.1-0.3
				c0-0.1,0.1-0.2,0.1-0.3c0-0.2,0.1-0.4,0.1-0.7c0.1-0.5,0.1-1,0.2-1.4C451.3,295.5,451.4,295.2,451.4,295.2z"/>
		</g>
	</g>
	<g>
		<path class="st46" d="M59.9,284.4"/>
		<path class="st47" d="M52.7,359.9l-1.4,2.2c0,0-1.9,1.7,0.4,4.7c2.3,2.9,2.6,3.9,5,3.5c2.4-0.4,4.1-1.7,1.5-1.8
			c-2.6-0.2-1.3-6.4-1.3-6.4S57.3,355.3,52.7,359.9z"/>
		<path class="st47" d="M65.1,355.1c0,0-1.3,2.8,1.1,2.6c2.4-0.2,6.2-0.2,4.3,1.3c-1.9,1.5-4.1,2.8-4.1,2.8s-3.8,2.9-3.9-1
			c-0.1-3.9-0.1-3.9-0.1-3.9S62.9,352.8,65.1,355.1z"/>
		<path class="st43" d="M65.8,354.6c0,0-1.3-18.8-0.4-21.6l-16.7-12.8c0,0-0.7,0.1-0.8,0.4c-0.1,0.2,0,13.3,1.4,15.6
			c0,0-4.3,14.9-0.8,19.1c0,0-0.4,5.8,3.2,4.8c3.6-1,6,4.3,7.2,2.2S60,358.8,65.8,354.6z"/>
		<path class="st47" d="M46.2,324.2c0,0,0.2,4.1-2.2,3.1c-2.5-1-1.6-5.1-1-5.7c0.6-0.6,0.5-0.5,1.3-0.3S46.2,324.2,46.2,324.2z"/>
		<path class="st47" d="M54.3,292.7l0.3-3.9c0,0-3.5-12,5-11.6c8.5,0.4,5.6,15.2,0.7,14.9l-0.3,1.9c0,0,8.4,1.8,8,5.4
			c0,0-2.3,13.5,4.3,21.9c0,0,3.7-0.8,4.2,0.7c0.5,1.5,1.2,4.3-0.8,4.3c-2,0-2.6-0.9-4-1.1c-1.4-0.1-9.1-4.8-8.6-20.6
			C63,304.6,58.2,301,54.3,292.7z"/>
		<path class="st44" d="M54.4,292.1c0,0-9.1-0.9-11,13.7s-1.6,13.6-1.6,13.6l4.9,1.8l2,0.7c0,0-0.4,3.4,0.7,4
			c1.1,0.5,5.4,1.9,5.4,1.9s3.6,7.8,10.7,5.1c0.8-0.3,1.6-0.7,2.5-1.3l-0.3-10.4l-3.2-20.7l-7.9-7.1L54.4,292.1z"/>
		<path class="st48" d="M46.7,321.2c0,0,0.1,3.8-1.2,3.5c-1.3-0.3,0.2-1.5-0.4-2.1c-0.5-0.6-3.7-0.9-2.5-2.8L46.7,321.2z"/>
	</g>
	<g>
		<path class="st52" d="M108.4,312.4l-3.8,2.6c0,0,3.6-0.1,3.4,4c-0.2,4,2.5,1.9,2.5,1.9s3.5-2.8,4.5-4.2c1-1.4-0.9-2-3.2-1
			c-2.3,1-3-2.5-3-2.5L108.4,312.4z"/>
		<path class="st52" d="M95.3,317.6c0,0-1.7,3.9,1.9,3.8c3.6-0.1,3.5,2.3,1.1,2.4s-9.2,1.6-7.9-0.8s1.2-5.1,1.2-6.1L95.3,317.6z"/>
		<path class="st43" d="M107.8,292.5l1.6,19.9c0,0-3.9,7.9-12.5,5.5l-5.5-1.1l0.3-24.2l1.9-3.3l2.9-3.8l2.2,1l2.7,2.4l5.6,2.9
			L107.8,292.5"/>
		<path class="st44" d="M107.9,267.9l0.5,24.3c0,0-5.6,3.9-12-4.9v8.9c0,0-2-3.4-6.8-3.9l-0.8-32.4c0,0,0.1-5,3.4-4.9l2.5,0
			l-0.1-0.7h1.7L107.9,267.9"/>
		<path class="st52" d="M96.5,254.5c0,0-1.4-14.8,5.7-12.9s4.5,13.3,0,13.1l-0.1,1.8c0,0,8.5,1.2,6.6,8.1
			c-1.8,6.9-2.6,12.2-2.5,17.6c0,0,1.7,1.4,1.3,2c-0.4,0.6-0.9,4.1-2.6,4s-1.5-1-1.5-1.9c0-0.9-0.3-2.1-0.7-3.4
			c-0.4-1.3-0.8-12.3,0.3-17.7C103,265.2,97.5,259.8,96.5,254.5z"/>
		<g>
			<path class="st53" d="M102.4,248.8c0,0,0.1,0.3,0.2,0.6c0.1,0.4,0.1,0.8,0.2,1.2c0,0.2,0.1,0.4,0.1,0.6c0,0.2,0.1,0.3,0.1,0.5
				c0.1,0.1,0.1,0.3,0.2,0.4c0.1,0.1,0.1,0.2,0.1,0.2c0,0-0.3,0.1-0.7-0.1c-0.2-0.1-0.4-0.3-0.5-0.5c-0.1-0.1-0.1-0.2-0.2-0.4
				c0-0.1-0.1-0.3-0.1-0.4c-0.1-0.5,0-1.1,0.2-1.4C102.1,249,102.4,248.8,102.4,248.8z"/>
		</g>
	</g>
	<g>
		<path class="st46" d="M414.9,247.6"/>
		<path class="st54" d="M421.3,313.6l1.2,1.9c0,0,1.6,1.5-0.4,4.1c-2,2.6-2.3,3.4-4.3,3.1c-2.1-0.3-3.6-1.4-1.3-1.6
			c2.3-0.1,1.2-5.6,1.2-5.6S417.2,309.6,421.3,313.6z"/>
		<path class="st54" d="M410.4,309.4c0,0,1.1,2.4-1,2.3s-5.5-0.1-3.8,1.2c1.7,1.3,3.6,2.5,3.6,2.5s3.3,2.5,3.4-0.9s0.1-3.4,0.1-3.4
			S412.4,307.4,410.4,309.4z"/>
		<path class="st43" d="M409.8,308.9c0,0,1.2-16.5,0.3-18.9l14.6-11.2c0,0,0.6,0.1,0.7,0.3c0.1,0.2,0,11.7-1.2,13.6
			c0,0,3.8,13,0.7,16.7c0,0,0.4,5.1-2.8,4.2s-5.3,3.8-6.3,2C414.7,313.9,414.9,312.7,409.8,308.9z"/>
		<path class="st55" d="M426.9,282.4c0,0-0.2,3.6,2,2.7s1.4-4.4,0.9-5c-0.5-0.5-0.4-0.4-1.1-0.3
			C427.9,280.1,426.9,282.4,426.9,282.4z"/>
		<path class="st54" d="M419.8,254.8l-0.3-3.4c0,0,3.1-10.5-4.3-10.1c-7.4,0.3-4.9,13.3-0.6,13l0.3,1.6c0,0-7.3,1.5-7,4.7
			c0,0,2,11.8-3.8,19.2c0,0-3.2-0.7-3.7,0.6c-0.4,1.3-1.1,3.8,0.7,3.8c1.8,0,2.3-0.8,3.5-0.9c1.2-0.1,7.9-4.2,7.5-18
			C412.2,265.3,416.4,262.1,419.8,254.8z"/>
		<path class="st44" d="M419.8,254.3c0,0,8-0.8,9.6,12c1.6,12.8,1.4,11.9,1.4,11.9l-4.3,1.5l-1.7,0.6c0,0,0.3,3-0.6,3.5
			c-1,0.5-4.7,1.7-4.7,1.7s-3.2,6.8-9.3,4.5c-0.7-0.3-1.4-0.6-2.2-1.1l0.3-9.1l2.8-18.1l6.9-6.2L419.8,254.3z"/>
		<path class="st54" d="M426.5,279.8c0,0-0.1,3.3,1.1,3.1s-0.1-1.3,0.3-1.8c0.5-0.5,3.2-0.8,2.2-2.5L426.5,279.8z"/>
	</g>
	
		<radialGradient id="SVGID_21_" cx="252.2486" cy="16.1305" r="280.0875" gradientTransform="matrix(2.499219e-002 0.8828 -2.136 4.715379e-002 280.3985 -373.7758)" gradientUnits="userSpaceOnUse">
		<stop  offset="0" style="stop-color:#FFFFFF;stop-opacity:0.95"/>
		<stop  offset="1" style="stop-color:#FFFFFF;stop-opacity:0"/>
	</radialGradient>
	<ellipse class="st56" cx="268.8" cy="222.9" rx="256.2" ry="220.9"/>
</g>
</svg>
