<?xml version="1.0" encoding="utf-8"?>
<!-- Generator: Adobe Illustrator 19.2.0, SVG Export Plug-In . SVG Version: 6.00 Build 0)  -->
<svg version="1.1" id="Layer_1" xmlns="http://www.w3.org/2000/svg" xmlns:xlink="http://www.w3.org/1999/xlink" x="0px" y="0px"
	 viewBox="0 0 533 540" style="enable-background:new 0 0 533 540;" xml:space="preserve">
<style type="text/css">
	.st0{fill:#E0A075;}
	.st1{fill:#C67A54;stroke:#C67A54;stroke-width:0.75;stroke-miterlimit:10;}
	.st2{fill:#53BB80;}
	.st3{fill:url(#SVGID_1_);}
	.st4{fill:url(#SVGID_2_);}
	.st5{opacity:0.26;fill:url(#SVGID_3_);}
	.st6{opacity:0.26;fill:url(#SVGID_4_);}
	.st7{opacity:0.26;fill:url(#SVGID_5_);}
	.st8{opacity:0.26;fill:url(#SVGID_6_);}
	.st9{fill:url(#SVGID_7_);}
	.st10{fill:#3B3D3A;}
	.st11{clip-path:url(#SVGID_9_);fill:#FFFFFF;}
	.st12{clip-path:url(#SVGID_9_);fill:url(#SVGID_10_);}
	.st13{clip-path:url(#SVGID_9_);}
	.st14{opacity:0.26;fill:url(#SVGID_11_);}
	.st15{opacity:0.26;fill:url(#SVGID_12_);}
	.st16{opacity:0.26;fill:url(#SVGID_13_);}
	.st17{opacity:0.26;fill:url(#SVGID_14_);}
	.st18{clip-path:url(#SVGID_9_);fill:url(#SVGID_15_);}
	.st19{fill:#333533;}
	.st20{fill:#FAB01B;}
	.st21{fill:#F49720;}
	.st22{fill:#FBF5EA;}
	.st23{fill:#E9DFCF;}
	.st24{fill:#896852;}
	.st25{fill:#7D5C4A;}
	.st26{fill:#F9B317;}
	.st27{clip-path:url(#SVGID_9_);fill:#53BB80;}
	.st28{clip-path:url(#SVGID_9_);fill:none;stroke:#BBBBBC;stroke-linecap:round;stroke-linejoin:round;stroke-miterlimit:10;}
	.st29{clip-path:url(#SVGID_9_);fill:url(#SVGID_16_);}
	.st30{fill:#6C4D38;}
	.st31{fill:#4D3A2D;}
	.st32{fill:#7E573E;}
	.st33{fill:#875B3C;}
	.st34{fill:#FACB82;}
	.st35{fill:#FCCC83;}
	.st36{fill:#D9E7E5;}
	.st37{opacity:0.76;fill:url(#SVGID_17_);}
	.st38{fill:#D5E0DD;}
	.st39{fill:none;stroke:#A3B6B3;stroke-width:3;stroke-miterlimit:10;}
	.st40{fill:#FFFFFF;}
	.st41{opacity:0.76;fill:url(#SVGID_18_);}
	.st42{fill:#F5CD95;}
	.st43{fill:#ECE9E4;}
	.st44{fill:#FBF9F0;}
	.st45{fill:#E1B580;}
	.st46{fill:none;stroke:#ECE9E4;stroke-miterlimit:10;}
	.st47{fill:#724422;}
	.st48{fill:#875022;}
	.st49{opacity:0.26;fill:url(#SVGID_19_);}
	.st50{opacity:0.26;fill:url(#SVGID_20_);}
	.st51{fill:#ECC18D;}
	.st52{fill:#F8D9B9;}
	.st53{fill:#E8C4A5;}
	.st54{fill:#83593C;}
	.st55{fill:#986B4B;}
	.st56{opacity:0.76;fill:url(#SVGID_21_);}
</style>
<g>
	<g>
		<g>
			<path class="st0" d="M422.5,234.4c0,0-9.5-12.7-14.2-37.2l-2.1-2.9l-3.2,1.3c0,0,7.5,35.8,14.5,42
				C417.5,237.6,420.8,237.8,422.5,234.4z"/>
			<path class="st1" d="M419.2,228.1l-6.1,3.3c-0.2,0.1-0.4,0.1-0.5-0.1l-0.1-0.2c-0.1-0.1,0-0.3,0.2-0.4l6.1-3.3
				c0.2-0.1,0.4-0.1,0.5,0.1l0.1,0.2C419.5,227.8,419.4,228,419.2,228.1z"/>
			<path class="st1" d="M414.8,218.5l-5.8,2.2c-0.2,0.1-0.4,0-0.4-0.1l-0.1-0.2c-0.1-0.1,0.1-0.3,0.2-0.4l5.8-2.2
				c0.2-0.1,0.4,0,0.4,0.1l0.1,0.2C415.1,218.2,415,218.4,414.8,218.5z"/>
			<path class="st1" d="M411.6,209.1l-5.4,1.6c-0.2,0.1-0.3,0-0.4-0.2l0-0.2c0-0.1,0.1-0.3,0.2-0.4l5.4-1.6c0.2-0.1,0.3,0,0.4,0.2
				l0,0.2C411.9,208.9,411.8,209.1,411.6,209.1z"/>
			<path class="st1" d="M409.7,201.1l-5.5,1.2c-0.2,0-0.3,0-0.4-0.2l0-0.2c0-0.1,0.1-0.3,0.3-0.3l5.5-1.2c0.2,0,0.3,0,0.4,0.2l0,0.2
				C410,200.9,409.9,201.1,409.7,201.1z"/>
			<path class="st2" d="M405.8,194.8c0,0,9.5,6.1,13.6,6.3c0,0-2.3-7.4-8.8-8.6c0,0,11.9-1.6,12.7-1.3c0,0-2.2-5.9-13.1-1.7
				c0,0,5.7-9.8,7.3-11.8c0,0-8.5-0.6-11.9,10.3c0,0-4.2-12.5-5.3-13.4c0,0-3.7,7.1,1.8,14.2c0,0-7.1-6.8-14.4-2.5l10.2,4.3
				c0,0-7.7,2.9-7.4,9c0,0,7-5.1,10-5.1c0,0-5.6,9.2-5.1,12.4C395.5,206.7,402.7,203.6,405.8,194.8z"/>
		</g>
		<g>
			<path class="st0" d="M420.7,229.9c0,0,7.1-14.2,7.6-39.1l1.5-3.2l3.4,0.8c0,0-1.2,36.5-7,43.9C426.1,232.2,422.9,233,420.7,229.9
				z"/>
			<path class="st1" d="M422.9,223.2l6.5,2.2c0.2,0.1,0.4,0,0.5-0.1l0.1-0.2c0-0.1-0.1-0.3-0.3-0.4l-6.5-2.2c-0.2-0.1-0.4,0-0.5,0.1
				l-0.1,0.2C422.5,222.9,422.6,223.1,422.9,223.2z"/>
			<path class="st1" d="M425.5,212.9l6.1,1.2c0.2,0,0.4-0.1,0.4-0.2l0-0.2c0-0.1-0.1-0.3-0.3-0.3l-6.1-1.2c-0.2,0-0.4,0.1-0.4,0.2
				l0,0.2C425.2,212.7,425.3,212.9,425.5,212.9z"/>
			<path class="st1" d="M427,203.1l5.6,0.7c0.2,0,0.3-0.1,0.4-0.2l0-0.2c0-0.1-0.1-0.3-0.3-0.3l-5.6-0.7c-0.2,0-0.3,0.1-0.4,0.2
				l0,0.2C426.7,203,426.9,203.1,427,203.1z"/>
			<path class="st1" d="M427.6,194.9l5.6,0.2c0.2,0,0.3-0.1,0.3-0.3l0-0.2c0-0.1-0.1-0.3-0.3-0.3l-5.6-0.2c-0.2,0-0.3,0.1-0.3,0.3
				l0,0.2C427.2,194.8,427.4,194.9,427.6,194.9z"/>
			<path class="st2" d="M430.5,189.4c0,0-10.4,9.6-15.5,10.8c0,0,1.2-9.7,9-12.6c0,0-15.1,0.6-16.1,1.1c0,0,1.5-7.8,15.9-5
				c0,0-9.2-10.9-11.7-13.1c0,0,10.4-2.6,17,10.3c0,0,2.5-16.5,3.7-17.8c0,0,6.1,8,0.8,18.1c0,0,7.4-10,17.3-6.3l-11.7,7.5
				c0,0,10.2,1.9,11.2,9.5c0,0-9.8-4.8-13.5-4.2c0,0,9,10.2,9,14.3C445.9,202.1,436.3,199.7,430.5,189.4z"/>
		</g>
		<linearGradient id="SVGID_1_" gradientUnits="userSpaceOnUse" x1="418.9446" y1="217.4164" x2="421.7446" y2="242.6166">
			<stop  offset="0" style="stop-color:#CCA140"/>
			<stop  offset="0.1103" style="stop-color:#D0A84F"/>
			<stop  offset="0.3231" style="stop-color:#DBBC77"/>
			<stop  offset="0.6168" style="stop-color:#ECDCB7"/>
			<stop  offset="0.9158" style="stop-color:#FFFFFF"/>
		</linearGradient>
		<path class="st3" d="M421.4,228.1c6.6,0,12.1,4.9,12.9,11.3h-25.8C409.3,233,414.8,228.1,421.4,228.1z"/>
	</g>
	<g>
		<g>
			<path class="st0" d="M117.9,242c0,0,8.7-11.7,13-34.2l1.9-2.7l2.9,1.2c0,0-6.9,32.8-13.3,38.6C122.4,244.9,119.4,245.1,117.9,242
				z"/>
			<path class="st1" d="M120.9,236.2l5.6,3c0.2,0.1,0.4,0.1,0.4-0.1l0.1-0.1c0.1-0.1,0-0.3-0.2-0.4l-5.6-3c-0.2-0.1-0.4-0.1-0.4,0.1
				l-0.1,0.1C120.6,236,120.7,236.1,120.9,236.2z"/>
			<path class="st1" d="M124.9,227.4l5.3,2c0.2,0.1,0.3,0,0.4-0.1l0.1-0.1c0-0.1-0.1-0.3-0.2-0.3l-5.3-2c-0.2-0.1-0.3,0-0.4,0.1
				l-0.1,0.1C124.6,227.2,124.7,227.3,124.9,227.4z"/>
			<path class="st1" d="M127.8,218.8l4.9,1.5c0.2,0,0.3,0,0.4-0.1l0-0.1c0-0.1-0.1-0.3-0.2-0.3l-4.9-1.5c-0.2,0-0.3,0-0.4,0.1l0,0.1
				C127.6,218.6,127.7,218.7,127.8,218.8z"/>
			<path class="st1" d="M129.6,211.4l5,1.1c0.2,0,0.3,0,0.3-0.2l0-0.1c0-0.1-0.1-0.3-0.2-0.3l-5-1.1c-0.2,0-0.3,0-0.3,0.2l0,0.1
				C129.3,211.3,129.4,211.4,129.6,211.4z"/>
			<path class="st2" d="M133.2,205.6c0,0-8.7,5.6-12.4,5.8c0,0,2.1-6.8,8-7.9c0,0-10.9-1.5-11.7-1.2c0,0,2-5.4,12-1.6
				c0,0-5.2-9-6.7-10.8c0,0,7.8-0.6,10.9,9.5c0,0,3.8-11.5,4.9-12.3c0,0,3.4,6.5-1.7,13.1c0,0,6.6-6.2,13.2-2.3l-9.3,3.9
				c0,0,7,2.7,6.8,8.2c0,0-6.4-4.6-9.2-4.7c0,0,5.2,8.4,4.7,11.3C142.6,216.6,136,213.7,133.2,205.6z"/>
		</g>
		<g>
			<path class="st0" d="M119.5,237.9c0,0-6.6-13-7-35.9l-1.4-3l-3.1,0.7c0,0,1.1,33.5,6.5,40.3C114.5,240,117.4,240.7,119.5,237.9z"
				/>
			<path class="st1" d="M117.5,231.7l-6,2c-0.2,0.1-0.4,0-0.4-0.1l-0.1-0.2c0-0.1,0.1-0.3,0.3-0.4l6-2c0.2-0.1,0.4,0,0.4,0.1
				l0.1,0.2C117.8,231.4,117.7,231.6,117.5,231.7z"/>
			<path class="st1" d="M115.1,222.2l-5.6,1.1c-0.2,0-0.3,0-0.4-0.2l0-0.2c0-0.1,0.1-0.3,0.3-0.3l5.6-1.1c0.2,0,0.3,0,0.4,0.2l0,0.2
				C115.4,222.1,115.3,222.2,115.1,222.2z"/>
			<path class="st1" d="M113.7,213.3l-5.1,0.6c-0.2,0-0.3-0.1-0.3-0.2l0-0.2c0-0.1,0.1-0.3,0.3-0.3l5.1-0.6c0.2,0,0.3,0.1,0.3,0.2
				l0,0.2C114,213.1,113.8,213.3,113.7,213.3z"/>
			<path class="st1" d="M113.2,205.7l-5.1,0.2c-0.2,0-0.3-0.1-0.3-0.2l0-0.2c0-0.1,0.1-0.3,0.3-0.3l5.1-0.2c0.2,0,0.3,0.1,0.3,0.2
				l0,0.2C113.5,205.6,113.4,205.7,113.2,205.7z"/>
			<path class="st2" d="M110.5,200.7c0,0,9.6,8.9,14.2,9.9c0,0-1.1-9-8.3-11.6c0,0,13.9,0.5,14.8,1c0,0-1.4-7.2-14.6-4.6
				c0,0,8.5-10,10.7-12c0,0-9.5-2.4-15.6,9.4c0,0-2.3-15.1-3.4-16.3c0,0-5.6,7.3-0.8,16.6c0,0-6.8-9.2-15.9-5.8l10.7,6.9
				c0,0-9.3,1.8-10.2,8.8c0,0,9-4.4,12.4-3.9c0,0-8.3,9.4-8.3,13.1C96.3,212.3,105.2,210.2,110.5,200.7z"/>
		</g>
		<linearGradient id="SVGID_2_" gradientUnits="userSpaceOnUse" x1="118.6008" y1="227.9848" x2="118.8678" y2="247.2071">
			<stop  offset="0" style="stop-color:#CCA140"/>
			<stop  offset="0.1103" style="stop-color:#D0A84F"/>
			<stop  offset="0.3231" style="stop-color:#DBBC77"/>
			<stop  offset="0.6168" style="stop-color:#ECDCB7"/>
			<stop  offset="0.9158" style="stop-color:#FFFFFF"/>
		</linearGradient>
		<path class="st4" d="M118.9,236.2c-6.1,0-11.1,4.5-11.9,10.4h23.7C130,240.7,124.9,236.2,118.9,236.2z"/>
	</g>
	<g>
		<linearGradient id="SVGID_3_" gradientUnits="userSpaceOnUse" x1="397.7247" y1="106" x2="397.7247" y2="222.211">
			<stop  offset="0" style="stop-color:#C5966A"/>
			<stop  offset="0.4637" style="stop-color:#D4A478;stop-opacity:0.4937"/>
			<stop  offset="0.9158" style="stop-color:#E7B68A;stop-opacity:0"/>
		</linearGradient>
		<polygon class="st5" points="508.9,226.9 398.2,116.2 286.6,227.8 		"/>
		<linearGradient id="SVGID_4_" gradientUnits="userSpaceOnUse" x1="453.5265" y1="105.8729" x2="453.5265" y2="223.5305">
			<stop  offset="0" style="stop-color:#C5966A"/>
			<stop  offset="0.4637" style="stop-color:#D4A478;stop-opacity:0.4937"/>
			<stop  offset="0.9158" style="stop-color:#E7B68A;stop-opacity:0"/>
		</linearGradient>
		<polygon class="st6" points="398.2,116.2 417.7,229.2 508.9,226.9 		"/>
	</g>
	<g>
		<linearGradient id="SVGID_5_" gradientUnits="userSpaceOnUse" x1="123.8667" y1="106" x2="123.8667" y2="222.211">
			<stop  offset="0" style="stop-color:#C5966A"/>
			<stop  offset="0.4637" style="stop-color:#D4A478;stop-opacity:0.4937"/>
			<stop  offset="0.9158" style="stop-color:#E7B68A;stop-opacity:0"/>
		</linearGradient>
		<polygon class="st7" points="235,226.9 124.3,116.2 12.7,227.8 		"/>
		<linearGradient id="SVGID_6_" gradientUnits="userSpaceOnUse" x1="179.6685" y1="105.8729" x2="179.6685" y2="223.5305">
			<stop  offset="0" style="stop-color:#C5966A"/>
			<stop  offset="0.4637" style="stop-color:#D4A478;stop-opacity:0.4937"/>
			<stop  offset="0.9158" style="stop-color:#E7B68A;stop-opacity:0"/>
		</linearGradient>
		<polygon class="st8" points="124.3,116.2 143.8,229.2 235,226.9 		"/>
	</g>
	<linearGradient id="SVGID_7_" gradientUnits="userSpaceOnUse" x1="189.9817" y1="176.1161" x2="189.9817" y2="176.1161">
		<stop  offset="0.1604" style="stop-color:#FFFFFF;stop-opacity:0"/>
		<stop  offset="0.6302" style="stop-color:#FFFFFF;stop-opacity:0.6512"/>
		<stop  offset="1" style="stop-color:#FFFFFF;stop-opacity:0.95"/>
	</linearGradient>
	<path class="st9" d="M190,176.1L190,176.1z"/>
	<g>
		<path class="st10" d="M351.8,460.8l-173.2-0.3c-7.4,0-13.5-6.1-13.4-13.5l0.8-392.6c0-7.4,6.1-13.5,13.5-13.4l177.5,0.3
			c5,0,9.2,4.1,9.2,9.2l-0.8,396.8C365.3,454.7,359.2,460.8,351.8,460.8z"/>
		<g>
			<defs>
				<path id="SVGID_8_" d="M348.9,411.5l-167.3-0.3c-3.9,0-7.1-3.2-7.1-7.2L175.1,93c0-3.9,3.2-7.1,7.2-7.1l167.3,0.3
					c3.9,0,7.1,3.2,7.1,7.2L356,404.4C356,408.4,352.8,411.6,348.9,411.5z"/>
			</defs>
			<clipPath id="SVGID_9_">
				<use xlink:href="#SVGID_8_"  style="overflow:visible;"/>
			</clipPath>
			<rect x="131" y="53.6" class="st11" width="338.7" height="466"/>
			<linearGradient id="SVGID_10_" gradientUnits="userSpaceOnUse" x1="267.3025" y1="133" x2="267.3025" y2="293.5273">
				<stop  offset="0" style="stop-color:#C5966A"/>
				<stop  offset="0.4637" style="stop-color:#D4A478;stop-opacity:0.4937"/>
				<stop  offset="0.9158" style="stop-color:#E7B68A;stop-opacity:0"/>
			</linearGradient>
			<rect x="170" y="202.6" class="st12" width="194.6" height="137"/>
			<g class="st13">
				<linearGradient id="SVGID_11_" gradientUnits="userSpaceOnUse" x1="335.9315" y1="130.4458" x2="335.9315" y2="204.0702">
					<stop  offset="0" style="stop-color:#C5966A"/>
					<stop  offset="0.4637" style="stop-color:#D4A478;stop-opacity:0.4937"/>
					<stop  offset="0.9158" style="stop-color:#E7B68A;stop-opacity:0"/>
				</linearGradient>
				<polygon class="st14" points="406.4,207.1 336.2,136.9 265.5,207.6 				"/>
				<linearGradient id="SVGID_12_" gradientUnits="userSpaceOnUse" x1="371.2842" y1="130.3652" x2="371.2842" y2="204.9062">
					<stop  offset="0" style="stop-color:#C5966A"/>
					<stop  offset="0.4637" style="stop-color:#D4A478;stop-opacity:0.4937"/>
					<stop  offset="0.9158" style="stop-color:#E7B68A;stop-opacity:0"/>
				</linearGradient>
				<polygon class="st15" points="336.2,136.9 348.6,208.5 406.4,207.1 				"/>
			</g>
			<g class="st13">
				<linearGradient id="SVGID_13_" gradientUnits="userSpaceOnUse" x1="196.1776" y1="152.6474" x2="196.1776" y2="207.7466">
					<stop  offset="0" style="stop-color:#C5966A"/>
					<stop  offset="0.4637" style="stop-color:#D4A478;stop-opacity:0.4937"/>
					<stop  offset="0.9158" style="stop-color:#E7B68A;stop-opacity:0"/>
				</linearGradient>
				<polygon class="st16" points="248.9,210 196.4,157.5 143.5,210.4 				"/>
				<linearGradient id="SVGID_14_" gradientUnits="userSpaceOnUse" x1="222.6349" y1="152.5872" x2="222.6349" y2="208.3722">
					<stop  offset="0" style="stop-color:#C5966A"/>
					<stop  offset="0.4637" style="stop-color:#D4A478;stop-opacity:0.4937"/>
					<stop  offset="0.9158" style="stop-color:#E7B68A;stop-opacity:0"/>
				</linearGradient>
				<polygon class="st17" points="196.4,157.5 205.6,211.1 248.9,210 				"/>
			</g>
			<linearGradient id="SVGID_15_" gradientUnits="userSpaceOnUse" x1="268.0784" y1="14.3333" x2="268.0784" y2="139.3009">
				<stop  offset="0" style="stop-color:#A7D9CE"/>
				<stop  offset="0.2607" style="stop-color:#B5D1BF;stop-opacity:0.7154"/>
				<stop  offset="0.7609" style="stop-color:#DABD98;stop-opacity:0.1691"/>
				<stop  offset="0.9158" style="stop-color:#E7B68A;stop-opacity:0"/>
			</linearGradient>
			<rect x="169" y="79.5" class="st18" width="198.1" height="128.1"/>
			<g class="st13">
				<path class="st10" d="M262.5,129.8c-0.6,0.2-1.2,0.4-1.9,0.5c-6.4,1.5-34,8-39.1,8.8c-5.1,0.9-4.6,8.7-4.5,10.3
					c0,0.2,0,0.4,0,0.6c0,4.3,0.3,48.1-0.1,57.3c-0.4,8.8,5,10.2,6.1,10.4c0.2,0,0.3,0.1,0.5,0.1c2.7,0.6,23.4,5.4,33.5,8.3
					c3.6,1,6.9,1.4,9.7,1.4v-98.4C264.8,129.2,263.3,129.5,262.5,129.8z"/>
				<path class="st19" d="M316.8,145.1c0.1-5.1-5.6-6.1-5.6-6.1s-32.3-7.2-38.8-9c-2.1-0.6-4-0.8-5.5-0.8v98.4c4.8,0,8.1-1,8.9-1.3
					c0.2-0.1,0.4-0.1,0.6-0.2l34.6-8.4c1.4-0.4,2.5-1,3.3-1.6c1.7-1.4,2.5-3.5,2.5-5.6C316.8,202.7,316.7,149.8,316.8,145.1z"/>
				<path class="st20" d="M260.3,143.9l-43.1,6.2v6.8l43.1-6.2c0,0,2.9-0.5,6.7-0.5v-6.8C263.2,143.5,260.3,143.9,260.3,143.9z"/>
				<path class="st21" d="M273.4,143.9c-2.2-0.4-4.5-0.5-6.5-0.5v6.8c2,0,4.3,0.1,6.5,0.5c6.4,1.1,43.4,5.6,43.4,5.6v-6.8
					C316.8,149.5,279.8,145,273.4,143.9z"/>
				<path class="st22" d="M260.3,195.4l-43.1-4.9v14l43.1,6.2c0,0,2.9,0.5,6.7,0.5v-15.3C263.2,195.8,260.3,195.4,260.3,195.4z"/>
				<path class="st23" d="M273.4,195.4c-2.2,0.4-4.5,0.5-6.5,0.5v15.3c2,0,4.3-0.1,6.5-0.5c6.4-1.1,43.4-5.6,43.4-5.6v-14.4
					C316.8,190.6,279.8,194.3,273.4,195.4z"/>
				<path class="st24" d="M257,210.2l-21.5-3.2l-18.4-2.6l-0.1,4c0,0-0.7,7.5,6,9.2l19,4.5l15.9,4.1l2.3,0.5l1.4,0.2l1.4,0.2
					l1.5,0.1l1.1,0.1l1.3,0V211C264.1,211,260.8,210.8,257,210.2z"/>
				<path class="st25" d="M316.9,208.5l0-1.7l-0.1-1.7l-40.8,5.2c0,0-3.2,0.8-9.1,0.8v16.5l0.1,0c0,0,1.2,0.1,3.3-0.2
					c2.1-0.3,2.8-0.3,6.7-1.4l5.8-1.4l28.3-6.9l1.2-0.4l0.9-0.4l0.9-0.6l0.8-0.7l0.9-1.2l0.6-1.2l0.4-1.2l0.1-0.9v-1.2L316.9,208.5z
					"/>
				<path class="st20" d="M245.3,167.1h-4.6c-1.9,0-3.5-1.6-3.5-3.5l0,0c0-1.9,1.6-3.5,3.5-3.5h4.6c1.9,0,3.5,1.6,3.5,3.5l0,0
					C248.8,165.6,247.2,167.1,245.3,167.1z"/>
				<circle class="st20" cx="229.9" cy="164.1" r="3.5"/>
				<circle class="st20" cx="255.3" cy="162.7" r="3.5"/>
				<path class="st20" d="M220.6,161.5h-3.3v7h3.3c1.5,0,2.7-1.2,2.7-2.7v-1.6C223.3,162.7,222.1,161.5,220.6,161.5z"/>
				<path class="st21" d="M270.1,158.9h-3.2v7h3.2c1.5,0,2.7-1.2,2.7-2.7v-1.6C272.8,160.2,271.6,158.9,270.1,158.9z"/>
				<path class="st20" d="M263.9,158.9c-1.5,0-2.7,1.2-2.7,2.7v1.6c0,1.5,1.2,2.7,2.7,2.7h3v-7H263.9z"/>
				<circle class="st21" cx="303.4" cy="164.4" r="3.5"/>
				<path class="st21" d="M313.2,161.7c-1.5,0-2.7,1.2-2.7,2.7v1.6c0,1.5,1.2,2.7,2.7,2.7h3.5v-7H313.2z"/>
				<path class="st26" d="M296.8,207.4v-43.6c0-1.9-1.6-3.5-3.5-3.5l-11.2-0.8c-1.9,0-3.5,1.6-3.5,3.5v46.7c0,0,0,0,0,0L296.8,207.4
					z"/>
			</g>
			<path class="st27" d="M307.6,336.1h-83.1c-3.3,0-6-2.7-6-6v-11c0-3.3,2.7-6,6-6h83.1c3.3,0,6,2.7,6,6v11
				C313.7,333.3,311,336.1,307.6,336.1z"/>
			<line class="st28" x1="218.6" y1="305.5" x2="312.8" y2="305.5"/>
			
				<linearGradient id="SVGID_16_" gradientUnits="userSpaceOnUse" x1="849.5417" y1="-1075.3514" x2="849.5417" y2="-1053.9744" gradientTransform="matrix(0.6827 -0.7307 0.7307 0.6827 577.7297 1520.0475)">
				<stop  offset="0" style="stop-color:#C5966A"/>
				<stop  offset="0.4637" style="stop-color:#D4A478;stop-opacity:0.9747"/>
				<stop  offset="0.9158" style="stop-color:#E7B68A;stop-opacity:0.95"/>
			</linearGradient>
			<path class="st29" d="M399.2,166.6c2.6,2.4-2.7,8.2-9.3,15.3s-12,12.7-14.6,10.3c-2.6-2.4-1.4-12,5.2-19.1
				C387.1,166,396.6,164.1,399.2,166.6z"/>
			<g class="st13">
				<path class="st30" d="M316.6,408.8c0,0-0.1,4.9,2.7,7.7c2.8,2.8,8.7,8.8,8.3,15.9c-0.3,7,0.9,23.4,0.7,24.7
					c-0.2,1.3-2,2.5,0.7,2.3c2.7-0.2,3.5,0,3-1.4c-0.5-1.4-0.2-1-0.5-5.6c-0.3-4.6-0.2-13.6-0.1-16.2c0.1-2.6,1.2-13.9,0.6-15.6
					l-5.3-11.7l-4.5-2.1l-5.7,0.8L316.6,408.8z"/>
				<path class="st31" d="M294.8,378c0,0-7.3,34.2,28.5,30.5l2.4-0.6l-0.8-4.7l-2.1-2.1l-8.4-0.6l-10.7-3.9l-6.9-18.1l0.8-3.4
					l-2.6-0.4L294.8,378z"/>
				<path class="st32" d="M374.5,397c0,0,1.1,12.8-1,13s-3-4.2-3.2-9.5S374.5,397,374.5,397z"/>
				<circle class="st31" cx="359.5" cy="375.4" r="8.7"/>
				<path class="st31" d="M317.5,394.5c0,0-6.2-2.7-6.2-17.2c0-14.6-10-12.9-14.2-12.8v4.3l6.1,0.5l2.2,4.5l0.6,14.4l1.4,4.9
					l7.2,3.1L317.5,394.5z"/>
				<circle class="st31" cx="337.1" cy="375.4" r="8.7"/>
				<path class="st33" d="M292.5,367.2c0,0-11.2-1.9-9.2,6.3c1.9,8.3,9.2,4,9.2,4s2.4,1,3.6-0.2c0,0-5,29.9,27.2,26.7v6
					c0,0,0.3,4.7,3.9,7.8c3.6,3.1,8.6,7.4,8.7,13c0.2,5.5,0,22.8,0,22.8l0.1,3.7c0,0-3.3,2.1-1.4,2.4c1.8,0.4,5.6,1.7,5.1-1.1
					s-0.8-28,0-31s0-9.2-3.3-14.9c0,0,8.6,2.3,14.7,1.2c0,0,3,7.6,3.9,13.1s-4.9,17-3.9,24.5c0,0,0.6,3.3,1,5
					c0.4,1.7-3.3,4.1-0.2,4.4c3,0.2,5.1,0.8,4-2.7c-1.1-3.5-2.6-11.5,0.3-17.5c2.9-5.9,6-17.5,6-17.5s13.6-22.5,12.7-30
					s-5.9-10.2-5.9-10.2s1.6-12.7-8.9-12.3s-9.6,7.6-9.6,7.6h-3.5c0,0-2.2-8.4-9.3-8.1c-7.2,0.2-9.8,6.4-9.5,10.1
					c0.4,3.6,0.5,15.3-11.4,13.2c-11.9-2.1-9.6-14.1-9.7-18.3c-0.1-4.2-0.2-2.9-1.1-4.9c-0.4-1-0.5-6.6-1.4-6.6
					c-0.9-0.1-2,1.5-1.9,3.2C302.6,368.8,292.5,367.2,292.5,367.2z"/>
				<path class="st33" d="M368.5,419.5c0,0-0.5-7.2,2.1-12.8c2.6-5.6,0.6-10.7-4.8-10.8c-5.4-0.1-12.6,8-8.9,17.6
					c3.7,9.6,6,14.6,2.5,24.7c-3.5,10.1-1.9,18.7-1.9,18.7s0.1,1.1-0.7,1.9c-0.8,0.8,5.5,1.5,4.5,0c-1-1.5-1.1-0.3-1.1-4.3
					s2.6-17.8,5.3-22.6C368.5,427,368.5,419.5,368.5,419.5z"/>
				<circle class="st10" cx="295.8" cy="371.1" r="1.4"/>
				<path class="st31" d="M283.5,369.7c0,0,3,3.1-0.4,3.3C283.2,373,283.1,371.3,283.5,369.7z"/>
				<path class="st30" d="M361.1,426.9c0,0,0.9-11.6-2.1-12.7S351,414,351,414l2.7,7.9c0,0,0.6,1.4,0.7,5.1s1.3,1.1-0.3,5.9
					c-1.6,4.8-4.4,15.1-2.7,21.2c0,0,1.2,3.4-0.3,4.6c-1.4,1.2-1.3,2.4,1.7,2.4s3.6,0.3,3-1.8s-1.2-7.3-1.1-13.6
					C355.1,439.4,360,438,361.1,426.9z"/>
			</g>
		</g>
		
			<ellipse transform="matrix(0.9973 -7.301280e-002 7.301280e-002 0.9973 -31.0455 20.1275)" class="st19" cx="259.8" cy="434.7" rx="13.8" ry="13.8"/>
		
			<ellipse transform="matrix(0.9973 -7.301280e-002 7.301280e-002 0.9973 -3.9447 20.8793)" class="st19" cx="283.6" cy="64.4" rx="4.7" ry="4.7"/>
		<path class="st19" d="M269.5,68.2l-31-0.1c-1.4,0-2.6-1.2-2.6-2.6l0-2.7c0-1.4,1.2-2.6,2.6-2.6l31,0.1c1.4,0,2.6,1.2,2.6,2.6
			l0,2.7C272.1,67,271,68.2,269.5,68.2z"/>
		<g>
			
				<ellipse transform="matrix(0.9984 -5.707613e-002 5.707613e-002 0.9984 -25.3814 10.4358)" class="st34" cx="170" cy="449.5" rx="12.5" ry="12.5"/>
			<path class="st34" d="M104.7,420.4c0.1-0.2,0.3-0.3,0.3-0.5c0.9-2.4,7-18.7,6.5-46.5c-0.5-30.1,5.5-54.2,18.9-84
				s25.4-63.8,30.8-79s2-26.8,11-26.1c9.1,0.7,31,31.1,13,69.8s-0.5,51.5,2.9,90.4c3.4,38.8,8.5,51.2-26.4,104.4
				c-0.1,0.2-0.2,0.5-0.3,0.7c-0.2,1.2-0.2,4.6,5.1,5.5c5.1,0.9,43,4.9,59.6,6.6c2,0.2,2.2,2.9,0.4,3.6c-3.8,1.3-9.7,3.2-18.6,6
				c-19.3,6-26.1,20.9-28.1,27.1c-0.4,1.3-2,1.7-3,0.8l-77.4-70.3c-0.7-0.7-0.8-1.8-0.1-2.6L104.7,420.4z"/>
			<path class="st35" d="M365.9,195.4c0-1.1,0.9-1.9,2-1.8c7.1,0.7,31.1,4,31.8,16c0.8,13.6-11.9,20.2-32.4,22.1
				c-1.1,0.1-2-0.8-2-1.9L365.9,195.4z"/>
			<path class="st35" d="M366.8,249.8c0.3,0,0.6,0,0.9,0.2c2.4,1.1,14.4,7.1,18.4,16.2c3.5,8,19,39.7-4.3,37.9
				c-23.2-1.8-26-12.6-21.1-26.1c0-0.1,0-0.1,0.1-0.2l4.7-10.5c0.1-0.2,0.2-0.5,0.2-0.7l0.3-16.7L366.8,249.8z"/>
			<path class="st35" d="M365,311.5l0.8-10c0.1-1.1,1.2-1.9,2.3-1.6c6.9,1.8,28.1,9.5,22.8,34c-6.3,29.2-20.3,25.5-27.6,18.3
				C356.2,345.4,358.1,322.2,365,311.5c0.3-0.4,0.5-0.8,0.8-1.1L365,311.5z"/>
			<path class="st35" d="M377.2,357.1c0.6,0,1.1,0.4,1.4,0.9c1.2,1.9,4,7,4,11.5c0,0,2.2,30.4-18.1,27.5
				c-19.2-2.8-5.9-35.9,0.4-41.7c0.5-0.5,1.3-0.6,1.9-0.3C368.3,355.5,371.7,356.7,377.2,357.1z"/>
			
				<ellipse transform="matrix(0.9984 -5.707613e-002 5.707613e-002 0.9984 -25.4914 10.591)" class="st36" cx="172.7" cy="451.6" rx="0.2" ry="2.2"/>
			<radialGradient id="SVGID_17_" cx="221.9576" cy="544.3881" r="120.4035" gradientUnits="userSpaceOnUse">
				<stop  offset="0" style="stop-color:#FFFFFF;stop-opacity:0.95"/>
				<stop  offset="1" style="stop-color:#FFFFFF;stop-opacity:0"/>
			</radialGradient>
			<path class="st37" d="M104.7,420.4c0.1-0.2,0.3-0.3,0.3-0.5c0.9-2.4,7-18.7,6.5-46.5c-0.5-30.1,5.5-54.2,18.9-84
				s25.4-63.8,30.8-79s2-26.8,11-26.1c9.1,0.7,31,31.1,13,69.8s-0.5,51.5,2.9,90.4c3.4,38.8,8.5,51.2-26.4,104.4
				c-0.1,0.2-0.2,0.5-0.3,0.7c-0.2,1.2-0.2,4.6,5.1,5.5c5.1,0.9,43,4.9,59.6,6.6c2,0.2,2.2,2.9,0.4,3.6c-3.8,1.3-9.7,3.2-18.6,6
				c-19.3,6-26.1,20.9-28.1,27.1c-0.4,1.3-2,1.7-3,0.8l-77.4-70.3c-0.7-0.7-0.8-1.8-0.1-2.6L104.7,420.4z"/>
		</g>
		<path class="st38" d="M197.4,502.3l-31,34.1c-1.9,2.1-5.1,2.2-7.2,0.3L65,451c-2.1-1.9-2.2-5.1-0.3-7.2l31-34.1
			c1.9-2.1,5.1-2.2,7.2-0.3L197,495C199.1,496.9,199.3,500.2,197.4,502.3z"/>
		<line class="st39" x1="150.7" y1="509.4" x2="140.5" y2="519.6"/>
		<circle class="st40" cx="158.5" cy="502.3" r="10.6"/>
		<radialGradient id="SVGID_18_" cx="190.9954" cy="511.9966" r="66.358" gradientUnits="userSpaceOnUse">
			<stop  offset="0" style="stop-color:#FFFFFF;stop-opacity:0.95"/>
			<stop  offset="1" style="stop-color:#FFFFFF;stop-opacity:0"/>
		</radialGradient>
		<path class="st41" d="M197.4,502.3l-31,34.1c-1.9,2.1-5.1,2.2-7.2,0.3L65,451c-2.1-1.9-2.2-5.1-0.3-7.2l31-34.1
			c1.9-2.1,5.1-2.2,7.2-0.3L197,495C199.1,496.9,199.3,500.2,197.4,502.3z"/>
	</g>
	<g>
		<path class="st42" d="M228.6,281.2l-3.9,2.7c0,0,3.7-0.1,3.5,4.1s2.6,1.9,2.6,1.9s3.6-2.8,4.7-4.3s-0.9-2-3.3-1s-3.1-2.6-3.1-2.6
			L228.6,281.2z"/>
		<path class="st42" d="M215.2,286.6c0,0-1.8,4,2,4c3.8-0.1,3.6,2.4,1.1,2.5s-9.5,1.7-8.1-0.9c1.4-2.5,1.2-5.2,1.2-6.3L215.2,286.6z
			"/>
		<path class="st43" d="M228,260.8l1.6,20.5c0,0-4,8.1-12.9,5.6l-5.7-1.1l0.3-24.9l2-3.4l3-3.9l2.3,1l2.7,2.4l5.8,3L228,260.8
			L228,260.8z"/>
		<path class="st44" d="M228.1,235.4l0.5,25c0,0-5.8,4-12.4-5.1v9.2c0,0-2.1-3.5-7-4l-0.8-33.3c0,0,0.1-5.1,3.5-5.1l2.6,0l-0.1-0.7
			h1.8L228.1,235.4L228.1,235.4z"/>
		<path class="st42" d="M216.4,221.6c0,0-1.4-15.3,5.8-13.3c7.3,2,4.6,13.7,0,13.5l-0.1,1.9c0,0,8.7,1.3,6.8,8.3
			c-1.9,7.1-2.7,12.6-2.6,18.1c0,0,1.8,1.4,1.4,2c-0.4,0.6-0.9,4.2-2.7,4.1s-1.6-1.1-1.6-2s-0.3-2.2-0.7-3.5s-0.8-12.7,0.3-18.2
			C223.1,232.6,217.4,227.1,216.4,221.6z"/>
		<g>
			<path class="st45" d="M222.4,215.7c0,0,0.1,0.3,0.2,0.6c0.1,0.4,0.1,0.8,0.2,1.2c0,0.2,0.1,0.4,0.1,0.6c0,0.1,0,0.2,0.1,0.3
				c0,0.1,0.1,0.2,0.1,0.2c0.1,0.1,0.1,0.3,0.2,0.4c0.1,0.1,0.1,0.2,0.1,0.2c0,0-0.3,0.1-0.7-0.1c-0.2-0.1-0.4-0.3-0.5-0.5
				c-0.1-0.1-0.1-0.2-0.2-0.4c0-0.1-0.1-0.3-0.1-0.4c-0.1-0.6,0-1.1,0.2-1.5C222.2,215.9,222.4,215.7,222.4,215.7z"/>
		</g>
	</g>
	<g>
		<path class="st46" d="M314.8,198.8"/>
		<path class="st47" d="M320.5,257.5l1.1,1.7c0,0,1.4,1.3-0.3,3.6s-2,3-3.9,2.7c-1.8-0.3-3.2-1.3-1.2-1.4c2-0.1,1-5,1-5
			S316.9,253.9,320.5,257.5z"/>
		<path class="st47" d="M310.8,253.7c0,0,1,2.2-0.9,2c-1.9-0.1-4.9-0.1-3.4,1c1.5,1.2,3.2,2.2,3.2,2.2s3,2.3,3-0.8
			c0.1-3,0.1-3,0.1-3S312.6,252,310.8,253.7z"/>
		<path class="st43" d="M310.3,253.3c0,0,1-14.6,0.3-16.8l13-10c0,0,0.6,0.1,0.6,0.3s0,10.4-1.1,12.1c0,0,3.4,11.6,0.6,14.9
			c0,0,0.3,4.5-2.5,3.7s-4.7,3.3-5.6,1.7C314.7,257.7,314.8,256.7,310.3,253.3z"/>
		<path class="st47" d="M325.5,229.8c0,0-0.2,3.2,1.7,2.4c1.9-0.8,1.2-3.9,0.8-4.4c-0.5-0.5-0.4-0.4-1-0.2
			C326.4,227.7,325.5,229.8,325.5,229.8z"/>
		<path class="st47" d="M319.2,205.2l-0.2-3c0,0,2.7-9.3-3.9-9s-4.3,11.8-0.5,11.6l0.3,1.5c0,0-6.5,1.4-6.2,4.2c0,0,1.8,10.5-3.3,17
			c0,0-2.9-0.6-3.3,0.5c-0.4,1.2-1,3.4,0.6,3.4s2-0.7,3.1-0.8c1.1-0.1,7.1-3.7,6.7-16C312.4,214.5,316.2,211.7,319.2,205.2z"/>
		<path class="st44" d="M319.2,204.8c0,0,7.1-0.7,8.5,10.7c1.5,11.4,1.3,10.6,1.3,10.6l-3.8,1.4l-1.5,0.5c0,0,0.3,2.7-0.6,3.1
			c-0.8,0.4-4.2,1.5-4.2,1.5s-2.8,6.1-8.3,4c-0.6-0.2-1.3-0.6-1.9-1l0.2-8.1l2.5-16.1l6.1-5.5L319.2,204.8z"/>
		<path class="st48" d="M325.1,227.4c0,0,0,3,1,2.8c1-0.2-0.1-1.2,0.3-1.6c0.4-0.4,2.9-0.7,1.9-2.2L325.1,227.4z"/>
	</g>
	<linearGradient id="SVGID_19_" gradientUnits="userSpaceOnUse" x1="410.2961" y1="29" x2="410.2961" y2="136.3354">
		<stop  offset="0" style="stop-color:#C5966A"/>
		<stop  offset="0.4637" style="stop-color:#D4A478;stop-opacity:0.4937"/>
		<stop  offset="0.9158" style="stop-color:#E7B68A;stop-opacity:0"/>
	</linearGradient>
	<path class="st49" d="M448.4,112.8c0-0.1,0.1-0.1,0.1-0.2c0.1-0.1,0.1-0.3,0.2-0.4c0-0.1,0-0.1,0.1-0.2c0.1-0.2,0.1-0.3,0.2-0.5
		c0-0.1,0-0.1,0.1-0.2c0-0.2,0.1-0.3,0.1-0.5c0,0,0,0,0-0.1c0-0.2,0.1-0.4,0.1-0.6c0-0.1,0-0.1,0-0.2c0-0.2,0-0.4,0-0.6
		c0-3.7-3-6.7-6.7-6.7c-0.9,0-1.8,0.2-2.6,0.5c-1.2-4.2-5.1-7.3-9.7-7.3c-0.3,0-0.5,0-0.8,0c-0.1,0-0.2,0-0.3,0c0,0-0.1,0-0.1,0
		c0,0,0,0,0,0c-0.2,0-0.4,0-0.6,0.1c0-0.1,0-0.1,0-0.2c0-4.5-1.5-8.7-4-12.1c0,0,0,0,0,0c0,0,0,0,0,0c-0.2-0.3-0.4-0.6-0.7-0.9
		c-0.1-0.1-0.1-0.1-0.2-0.2c-0.2-0.2-0.4-0.4-0.5-0.6c-0.1-0.1-0.2-0.2-0.3-0.3c-0.2-0.2-0.3-0.3-0.5-0.5c-0.1-0.1-0.2-0.2-0.3-0.3
		c-0.2-0.2-0.4-0.3-0.5-0.5c-0.1-0.1-0.2-0.2-0.3-0.2c-0.2-0.2-0.4-0.4-0.7-0.5c-0.1,0-0.1-0.1-0.2-0.1c-0.3-0.2-0.6-0.4-0.9-0.6
		c-0.1,0-0.1-0.1-0.2-0.1c-0.2-0.2-0.5-0.3-0.7-0.4c-0.1-0.1-0.2-0.1-0.3-0.2c-0.2-0.1-0.4-0.2-0.6-0.3c-0.1-0.1-0.2-0.1-0.4-0.2
		c-0.2-0.1-0.4-0.2-0.6-0.3c-0.1-0.1-0.2-0.1-0.4-0.2c-0.2-0.1-0.5-0.2-0.7-0.3c-0.1,0-0.2-0.1-0.3-0.1c-0.3-0.1-0.7-0.2-1-0.4
		c-0.1,0-0.1,0-0.2,0c-0.3-0.1-0.6-0.2-0.9-0.2c-0.1,0-0.2-0.1-0.4-0.1c-0.2-0.1-0.5-0.1-0.7-0.2c-0.1,0-0.3-0.1-0.4-0.1
		c-0.2,0-0.5-0.1-0.7-0.1c-0.1,0-0.3,0-0.4-0.1c-0.3,0-0.5-0.1-0.8-0.1c-0.1,0-0.2,0-0.4,0c-0.4,0-0.8,0-1.1,0
		c-8.7,0-16,5.4-18.9,13.1c-1.3-0.4-2.7-0.6-4.1-0.6c-0.3,0-0.6,0-0.9,0c-0.1,0-0.2,0-0.2,0c-0.2,0-0.5,0-0.7,0.1
		c-0.1,0-0.1,0-0.2,0c-0.3,0-0.6,0.1-0.9,0.2c-0.1,0-0.1,0-0.2,0c-0.2,0.1-0.5,0.1-0.7,0.2c-0.1,0-0.1,0-0.2,0.1
		c-0.3,0.1-0.5,0.2-0.8,0.3c0,0,0,0,0,0c-0.3,0.1-0.5,0.2-0.8,0.3c-0.1,0-0.1,0-0.2,0.1c-0.2,0.1-0.5,0.2-0.7,0.3c0,0-0.1,0-0.1,0.1
		c-0.3,0.1-0.5,0.3-0.8,0.4c0,0,0,0,0,0c-0.2,0.1-0.5,0.3-0.7,0.5c0,0-0.1,0-0.1,0.1c-0.5,0.3-0.9,0.7-1.4,1.1c0,0,0,0,0,0
		c-0.2,0.2-0.4,0.4-0.6,0.6c0,0,0,0,0,0c-0.4,0.4-0.8,0.9-1.2,1.4c0,0,0,0,0,0c-1.6,2.3-2.6,5.1-2.6,8.1c0,7.7,6.2,14,14,14h57.3
		C445.1,116.2,447.2,114.9,448.4,112.8C448.4,112.9,448.4,112.9,448.4,112.8C448.4,112.8,448.4,112.8,448.4,112.8z"/>
	<linearGradient id="SVGID_20_" gradientUnits="userSpaceOnUse" x1="132.0465" y1="55.909" x2="132.0465" y2="120.1406">
		<stop  offset="0" style="stop-color:#C5966A"/>
		<stop  offset="0.4637" style="stop-color:#D4A478;stop-opacity:0.4937"/>
		<stop  offset="0.9158" style="stop-color:#E7B68A;stop-opacity:0"/>
	</linearGradient>
	<path class="st50" d="M154.9,106.1c0,0,0-0.1,0.1-0.1c0-0.1,0.1-0.2,0.1-0.2c0,0,0-0.1,0-0.1c0-0.1,0.1-0.2,0.1-0.3
		c0,0,0-0.1,0-0.1c0-0.1,0.1-0.2,0.1-0.3c0,0,0,0,0,0c0-0.1,0-0.2,0.1-0.3c0,0,0-0.1,0-0.1c0-0.1,0-0.2,0-0.4c0-2.2-1.8-4-4-4
		c-0.5,0-1.1,0.1-1.5,0.3c-0.7-2.5-3.1-4.4-5.8-4.4c-0.2,0-0.3,0-0.5,0c-0.1,0-0.1,0-0.2,0c0,0-0.1,0-0.1,0c0,0,0,0,0,0
		c-0.1,0-0.2,0-0.4,0c0,0,0-0.1,0-0.1c0-2.7-0.9-5.2-2.4-7.2c0,0,0,0,0,0c0,0,0,0,0,0c-0.1-0.2-0.3-0.3-0.4-0.5c0,0-0.1-0.1-0.1-0.1
		c-0.1-0.1-0.2-0.2-0.3-0.4c0-0.1-0.1-0.1-0.1-0.2c-0.1-0.1-0.2-0.2-0.3-0.3c-0.1-0.1-0.1-0.1-0.2-0.2c-0.1-0.1-0.2-0.2-0.3-0.3
		c-0.1,0-0.1-0.1-0.2-0.1c-0.1-0.1-0.3-0.2-0.4-0.3c0,0-0.1-0.1-0.1-0.1c-0.2-0.1-0.3-0.3-0.5-0.4c0,0-0.1-0.1-0.1-0.1
		c-0.1-0.1-0.3-0.2-0.4-0.3c-0.1,0-0.1-0.1-0.2-0.1c-0.1-0.1-0.2-0.1-0.4-0.2c-0.1,0-0.1-0.1-0.2-0.1c-0.1-0.1-0.3-0.1-0.4-0.2
		c-0.1,0-0.1-0.1-0.2-0.1c-0.1-0.1-0.3-0.1-0.4-0.2c-0.1,0-0.1,0-0.2-0.1c-0.2-0.1-0.4-0.1-0.6-0.2c0,0-0.1,0-0.1,0
		c-0.2-0.1-0.4-0.1-0.5-0.1c-0.1,0-0.1,0-0.2-0.1c-0.1,0-0.3-0.1-0.4-0.1c-0.1,0-0.2,0-0.2,0c-0.1,0-0.3,0-0.4-0.1
		c-0.1,0-0.2,0-0.3,0c-0.2,0-0.3,0-0.5,0c-0.1,0-0.1,0-0.2,0c-0.2,0-0.5,0-0.7,0c-5.2,0-9.6,3.3-11.3,7.8c-0.8-0.2-1.6-0.4-2.5-0.4
		c-0.2,0-0.4,0-0.5,0c0,0-0.1,0-0.1,0c-0.1,0-0.3,0-0.4,0c0,0-0.1,0-0.1,0c-0.2,0-0.3,0.1-0.5,0.1c0,0-0.1,0-0.1,0
		c-0.1,0-0.3,0.1-0.4,0.1c0,0-0.1,0-0.1,0c-0.2,0-0.3,0.1-0.5,0.2l0,0c-0.2,0.1-0.3,0.1-0.5,0.2c0,0-0.1,0-0.1,0
		c-0.1,0.1-0.3,0.1-0.4,0.2c0,0,0,0-0.1,0c-0.2,0.1-0.3,0.2-0.5,0.3c0,0,0,0,0,0c-0.1,0.1-0.3,0.2-0.4,0.3c0,0,0,0-0.1,0
		c-0.3,0.2-0.6,0.4-0.8,0.7c0,0,0,0,0,0c-0.1,0.1-0.2,0.2-0.4,0.4c0,0,0,0,0,0c-0.2,0.3-0.5,0.6-0.7,0.8c0,0,0,0,0,0
		c-1,1.4-1.5,3-1.5,4.8c0,4.6,3.7,8.4,8.4,8.4h34.3C152.9,108.1,154.1,107.3,154.9,106.1C154.8,106.1,154.8,106.1,154.9,106.1
		C154.9,106.1,154.9,106.1,154.9,106.1z"/>
	<g>
		<path class="st51" d="M441.7,368.8l4.4,3c0,0-4.2-0.1-4,4.6c0.2,4.7-2.9,2.2-2.9,2.2s-4.1-3.2-5.2-4.9c-1.2-1.7,1-2.3,3.7-1.2
			c2.7,1.2,3.5-2.9,3.5-2.9L441.7,368.8z"/>
		<path class="st51" d="M456.8,374.8c0,0,2,4.5-2.2,4.4c-4.2-0.1-4.1,2.7-1.2,2.8c2.9,0.1,10.7,1.9,9.2-1c-1.5-2.8-1.3-5.9-1.3-7.1
			L456.8,374.8z"/>
		<path class="st43" d="M442.4,345.8l-1.8,23c0,0,4.5,9.1,14.5,6.3l6.4-1.2l-0.3-28l-2.2-3.9l-3.4-4.4l-2.6,1.2l-3.1,2.8l-6.5,3.4
			L442.4,345.8L442.4,345.8z"/>
		<path class="st44" d="M442.3,317.3l-0.6,28.1c0,0,6.5,4.5,13.9-5.7V350c0,0,2.4-3.9,7.9-4.5l0.9-37.5c0,0-0.1-5.8-3.9-5.7l-2.9,0
			l0.1-0.8h-2L442.3,317.3L442.3,317.3z"/>
		<path class="st51" d="M455.4,301.7c0,0,1.6-17.1-6.6-14.9c-8.2,2.2-5.2,15.4,0,15.1l0.1,2.1c0,0-9.8,1.4-7.7,9.3
			c2.1,7.9,3.1,14.2,2.9,20.4c0,0-2,1.6-1.6,2.3c0.4,0.7,1,4.7,3,4.6c2-0.1,1.8-1.2,1.8-2.2c0-1,0.3-2.4,0.8-3.9
			c0.5-1.5,0.9-14.2-0.4-20.5C447.9,314.1,454.3,307.9,455.4,301.7z"/>
		<g>
			<path class="st45" d="M448.7,295.1c0,0,0.2,0.2,0.4,0.6c0.2,0.4,0.3,1,0.2,1.6c0,0.2-0.1,0.3-0.1,0.5c0,0.2-0.1,0.3-0.2,0.4
				c-0.2,0.3-0.4,0.5-0.6,0.6c-0.4,0.3-0.8,0.2-0.8,0.2c0,0,0-0.1,0.1-0.2c0.1-0.1,0.2-0.3,0.2-0.4c0-0.1,0.1-0.2,0.1-0.3
				c0-0.1,0.1-0.2,0.1-0.3c0-0.2,0.1-0.4,0.1-0.7c0.1-0.5,0.1-1,0.2-1.4C448.6,295.5,448.7,295.1,448.7,295.1z"/>
		</g>
	</g>
	<g>
		<path class="st46" d="M57.2,284.4"/>
		<path class="st47" d="M49.9,359.8l-1.4,2.2c0,0-1.9,1.7,0.4,4.7c2.3,2.9,2.6,3.9,5,3.5c2.4-0.4,4.1-1.7,1.5-1.8
			c-2.6-0.2-1.3-6.4-1.3-6.4S54.6,355.3,49.9,359.8z"/>
		<path class="st47" d="M62.4,355.1c0,0-1.3,2.8,1.1,2.6s6.2-0.2,4.3,1.3c-1.9,1.5-4.1,2.8-4.1,2.8s-3.8,2.9-3.9-1s-0.1-3.9-0.1-3.9
			S60.1,352.8,62.4,355.1z"/>
		<path class="st43" d="M63.1,354.5c0,0-1.3-18.8-0.4-21.6L46,320.1c0,0-0.7,0.1-0.8,0.4c-0.1,0.2,0,13.3,1.4,15.6
			c0,0-4.3,14.9-0.8,19.1c0,0-0.4,5.8,3.2,4.8c3.6-1,6,4.3,7.2,2.2C57.4,360.2,57.3,358.8,63.1,354.5z"/>
		<path class="st47" d="M43.5,324.2c0,0,0.2,4.1-2.2,3.1c-2.5-1-1.6-5.1-1-5.7s0.5-0.5,1.3-0.3S43.5,324.2,43.5,324.2z"/>
		<path class="st47" d="M51.6,292.6l0.3-3.9c0,0-3.5-12,5-11.6s5.6,15.2,0.7,14.9l-0.3,1.9c0,0,8.4,1.8,8,5.4c0,0-2.3,13.5,4.3,21.9
			c0,0,3.7-0.8,4.2,0.7c0.5,1.5,1.2,4.3-0.8,4.3c-2,0-2.6-0.9-4-1.1c-1.4-0.1-9.1-4.8-8.6-20.6C60.3,304.6,55.4,301,51.6,292.6z"/>
		<path class="st44" d="M51.6,292.1c0,0-9.1-0.9-11,13.7c-1.9,14.6-1.6,13.6-1.6,13.6l4.9,1.8l2,0.7c0,0-0.4,3.4,0.7,4
			c1.1,0.5,5.4,1.9,5.4,1.9s3.6,7.8,10.7,5.1c0.8-0.3,1.6-0.7,2.5-1.3l-0.3-10.4l-3.2-20.7l-7.9-7.1L51.6,292.1z"/>
		<path class="st48" d="M43.9,321.2c0,0,0.1,3.8-1.2,3.5c-1.3-0.3,0.2-1.5-0.4-2.1c-0.5-0.6-3.7-0.9-2.5-2.8L43.9,321.2z"/>
	</g>
	<g>
		<path class="st52" d="M105.7,312.4l-3.8,2.6c0,0,3.6-0.1,3.4,4s2.5,1.9,2.5,1.9s3.5-2.8,4.5-4.2c1-1.4-0.9-2-3.2-1
			c-2.3,1-3-2.5-3-2.5L105.7,312.4z"/>
		<path class="st52" d="M92.6,317.6c0,0-1.7,3.9,1.9,3.8s3.5,2.3,1.1,2.4c-2.5,0.1-9.2,1.6-7.9-0.8c1.3-2.4,1.2-5.1,1.2-6.1
			L92.6,317.6z"/>
		<path class="st43" d="M105,292.5l1.6,19.9c0,0-3.9,7.9-12.5,5.5l-5.5-1.1l0.3-24.2l1.9-3.3l2.9-3.8l2.2,1l2.7,2.4l5.6,2.9
			L105,292.5L105,292.5z"/>
		<path class="st44" d="M105.1,267.9l0.5,24.3c0,0-5.6,3.9-12-4.9v8.9c0,0-2-3.4-6.8-3.9l-0.8-32.4c0,0,0.1-5,3.4-4.9l2.5,0
			l-0.1-0.7h1.7L105.1,267.9L105.1,267.9z"/>
		<path class="st52" d="M93.8,254.5c0,0-1.4-14.8,5.7-12.9c7.1,1.9,4.5,13.3,0,13.1l-0.1,1.8c0,0,8.5,1.2,6.6,8.1
			c-1.8,6.9-2.6,12.2-2.5,17.6c0,0,1.7,1.4,1.3,2c-0.4,0.6-0.9,4.1-2.6,4s-1.5-1-1.5-1.9c0-0.9-0.3-2.1-0.7-3.4s-0.8-12.3,0.3-17.7
			C100.3,265.1,94.7,259.8,93.8,254.5z"/>
		<g>
			<path class="st53" d="M99.6,248.8c0,0,0.1,0.3,0.2,0.6c0.1,0.4,0.1,0.8,0.2,1.2c0,0.2,0.1,0.4,0.1,0.6c0,0.2,0.1,0.3,0.1,0.5
				c0.1,0.1,0.1,0.3,0.2,0.4c0.1,0.1,0.1,0.2,0.1,0.2c0,0-0.3,0.1-0.7-0.1c-0.2-0.1-0.4-0.3-0.5-0.5c-0.1-0.1-0.1-0.2-0.2-0.4
				c0-0.1-0.1-0.3-0.1-0.4c-0.1-0.5,0-1.1,0.2-1.4C99.4,249,99.6,248.8,99.6,248.8z"/>
		</g>
	</g>
	<g>
		<path class="st46" d="M412.2,247.5"/>
		<path class="st54" d="M418.5,313.6l1.2,1.9c0,0,1.6,1.5-0.4,4.1c-2,2.6-2.3,3.4-4.3,3.1c-2.1-0.3-3.6-1.4-1.3-1.6
			c2.3-0.1,1.2-5.6,1.2-5.6S414.5,309.6,418.5,313.6z"/>
		<path class="st54" d="M407.6,309.4c0,0,1.1,2.4-1,2.3c-2.1-0.1-5.5-0.1-3.8,1.2c1.7,1.3,3.6,2.5,3.6,2.5s3.3,2.5,3.4-0.9
			c0.1-3.4,0.1-3.4,0.1-3.4S409.6,307.4,407.6,309.4z"/>
		<path class="st43" d="M407,308.9c0,0,1.2-16.5,0.3-18.9l14.6-11.2c0,0,0.6,0.1,0.7,0.3c0.1,0.2,0,11.7-1.2,13.6
			c0,0,3.8,13,0.7,16.7c0,0,0.4,5.1-2.8,4.2s-5.3,3.8-6.3,2S412.1,312.7,407,308.9z"/>
		<path class="st55" d="M424.1,282.4c0,0-0.2,3.6,2,2.7c2.2-0.8,1.4-4.4,0.9-5c-0.5-0.5-0.4-0.4-1.1-0.3
			C425.1,280.1,424.1,282.4,424.1,282.4z"/>
		<path class="st54" d="M417.1,254.8l-0.3-3.4c0,0,3.1-10.5-4.3-10.1c-7.4,0.3-4.9,13.3-0.6,13l0.3,1.6c0,0-7.3,1.5-7,4.7
			c0,0,2,11.8-3.8,19.2c0,0-3.2-0.7-3.7,0.6c-0.4,1.3-1.1,3.8,0.7,3.8c1.8,0,2.3-0.8,3.5-0.9c1.2-0.1,7.9-4.2,7.5-18
			C409.5,265.2,413.7,262.1,417.1,254.8z"/>
		<path class="st44" d="M417,254.3c0,0,8-0.8,9.6,12c1.6,12.8,1.4,11.9,1.4,11.9l-4.3,1.5l-1.7,0.6c0,0,0.3,3-0.6,3.5
			c-1,0.5-4.7,1.7-4.7,1.7s-3.2,6.8-9.3,4.5c-0.7-0.3-1.4-0.6-2.2-1.1l0.3-9.1l2.8-18.1l6.9-6.2L417,254.3z"/>
		<path class="st54" d="M423.8,279.8c0,0-0.1,3.3,1.1,3.1c1.1-0.2-0.1-1.3,0.3-1.8s3.2-0.8,2.2-2.5L423.8,279.8z"/>
	</g>
	
		<radialGradient id="SVGID_21_" cx="249.4999" cy="15.9791" r="280.0875" gradientTransform="matrix(2.499219e-002 0.8828 -2.136 4.715379e-002 277.3951 -371.3589)" gradientUnits="userSpaceOnUse">
		<stop  offset="0" style="stop-color:#FFFFFF;stop-opacity:0.95"/>
		<stop  offset="1" style="stop-color:#FFFFFF;stop-opacity:0"/>
	</radialGradient>
	<ellipse class="st56" cx="266.1" cy="222.9" rx="256.2" ry="220.9"/>
</g>
</svg>
